<svg width="39" height="26" viewBox="0 0 39 26" fill="none" xmlns="http://www.w3.org/2000/svg">
<g id="Mon panier (2 articles)-19 (1) 2" clip-path="url(#clip0_1070_20819)">
<g id="Group">
<path id="Vector" d="M3.25092 1.08301H35.7509C36.9429 1.08301 37.9179 2.05801 37.9179 3.24995V22.7499C37.9179 23.9419 36.9429 24.9169 35.7509 24.9169H3.25092C2.67674 24.9152 2.12657 24.6863 1.72056 24.2803C1.31455 23.8743 1.0857 23.3241 1.08398 22.7499V3.24995C1.08398 2.05801 2.05898 1.08301 3.25092 1.08301Z" fill="white"/>
<path id="Vector_2" d="M35.75 1.08306C36.9419 1.08306 37.9169 2.05806 37.9169 3.25V22.75C37.9169 23.9419 36.9419 24.9169 35.75 24.9169H3.25C2.67582 24.9152 2.12565 24.6864 1.71964 24.2804C1.31363 23.8744 1.08478 23.3242 1.08306 22.75V3.25C1.08306 2.05806 2.05806 1.08306 3.25 1.08306H35.75ZM35.75 0H3.25C1.40806 0 0 1.40806 0 3.25V22.75C0 24.5919 1.40806 26 3.25 26H35.75C37.5919 26 39 24.5919 39 22.75V3.25C39 1.40806 37.5919 0 35.75 0Z" fill="#DDDDDD"/>
</g>
<g id="Group 96">
<path id="Vector_3" d="M11.6727 12.2984V12.2371H10.8332C10.4383 12.2371 10.147 12.2754 9.95534 12.3559C9.77134 12.4287 9.67934 12.5897 9.67934 12.8427C9.67934 13.2184 9.94384 13.4062 10.469 13.4062C10.9098 13.4062 11.2203 13.3142 11.3967 13.1302C11.5807 12.9386 11.6727 12.6626 11.6727 12.2984ZM10.1432 14.4987C9.52601 14.4987 9.06601 14.3454 8.77084 14.0426C8.47567 13.7321 8.32617 13.3334 8.32617 12.8427C8.32617 12.2524 8.51784 11.8307 8.89734 11.5739C9.28067 11.3094 9.86334 11.1752 10.6453 11.1752H11.6727V10.9567C11.6727 10.4661 11.3622 10.2246 10.745 10.2246C10.193 10.2246 9.88634 10.4354 9.82501 10.8609H8.44501C8.49101 10.3511 8.70184 9.92557 9.07751 9.58057C9.45317 9.23557 10.0205 9.06307 10.7757 9.06307C11.527 9.06307 12.0943 9.23174 12.4738 9.56907C12.8533 9.91024 13.045 10.3856 13.045 10.9989V14.3799H11.7992V13.8049C11.504 14.2687 10.952 14.4987 10.1432 14.4987ZM16.1998 13.1724V14.3722C16.0618 14.3914 15.9162 14.4029 15.7667 14.4029C15.2185 14.4029 14.8313 14.2879 14.6013 14.0541C14.3713 13.8164 14.2563 13.4369 14.2563 12.9117V6.94324H15.6593V12.8159C15.6593 12.9424 15.6823 13.0344 15.7283 13.0919C15.7743 13.1532 15.8702 13.1801 16.0158 13.1801H16.1232C16.1653 13.1762 16.1922 13.1724 16.1998 13.1724ZM21.739 11.4244V14.3799H20.336V11.2941C20.336 10.6117 20.06 10.2706 19.508 10.2706C19.186 10.2706 18.9368 10.3702 18.7567 10.5696C18.5842 10.7689 18.4998 11.0411 18.4998 11.3937V14.3799H17.0968V9.18574H18.3925V9.81824C18.6608 9.31607 19.1592 9.06307 19.8837 9.06307C20.5698 9.06307 21.0682 9.3084 21.3863 9.79524C21.8272 9.30457 22.4022 9.06307 23.1037 9.06307C23.7093 9.06307 24.1732 9.2509 24.4952 9.62657C24.8172 10.0022 24.9782 10.5044 24.9782 11.1331V14.3799H23.5752V11.2941C23.5752 10.6117 23.2992 10.2706 22.7472 10.2706C22.4175 10.2706 22.1683 10.3741 21.9958 10.5772C21.8272 10.7804 21.739 11.0602 21.739 11.4244ZM29.2945 12.2984V12.2371H28.455C28.0602 12.2371 27.7688 12.2754 27.5772 12.3559C27.3932 12.4287 27.3012 12.5897 27.3012 12.8427C27.3012 13.2184 27.5657 13.4062 28.0908 13.4062C28.5317 13.4062 28.8422 13.3142 29.0185 13.1302C29.2025 12.9386 29.2945 12.6626 29.2945 12.2984ZM27.765 14.4987C27.1478 14.4987 26.6878 14.3454 26.3927 14.0426C26.0975 13.7321 25.948 13.3334 25.948 12.8427C25.948 12.2524 26.1397 11.8307 26.5192 11.5739C26.9025 11.3094 27.4852 11.1752 28.2672 11.1752H29.2945V10.9567C29.2945 10.4661 28.984 10.2246 28.3668 10.2246C27.8148 10.2246 27.5082 10.4354 27.4468 10.8609H26.063C26.109 10.3511 26.3198 9.92557 26.6955 9.58057C27.0712 9.23557 27.6385 9.06307 28.3937 9.06307C29.145 9.06307 29.7123 9.23174 30.0918 9.56907C30.4752 9.9064 30.663 10.3817 30.663 10.9989V14.3799H29.4172V13.8049C29.1258 14.2687 28.5738 14.4987 27.765 14.4987Z" fill="#004261"/>
<path id="Vector_4" d="M31 17.7877H8V19.4322H31V17.7877Z" fill="#E8494E"/>
</g>
</g>
<defs>
<clipPath id="clip0_1070_20819">
<rect width="39" height="26" fill="white"/>
</clipPath>
</defs>
</svg>
