<svg width="13" height="15" viewBox="0 0 13 15" fill="none" xmlns="http://www.w3.org/2000/svg">
<path d="M8.5 2.66659V1.33325M8.5 2.66659V3.99992M8.5 2.66659H5.5M0.5 6.66659V12.6666C0.5 13.0202 0.640476 13.3593 0.890524 13.6094C1.14057 13.8594 1.47971 13.9999 1.83333 13.9999H11.1667C11.5203 13.9999 11.8594 13.8594 12.1095 13.6094C12.3595 13.3593 12.5 13.0202 12.5 12.6666V6.66659M0.5 6.66659H12.5M0.5 6.66659V3.99992C0.5 3.6463 0.640476 3.30716 0.890524 3.05711C1.14057 2.80706 1.47971 2.66659 1.83333 2.66659H3.16667M12.5 6.66659V3.99992C12.5 3.6463 12.3595 3.30716 12.1095 3.05711C11.8594 2.80706 11.5203 2.66659 11.1667 2.66659H10.8333M3.16667 1.33325V3.99992" stroke="#FCFAF7" stroke-linecap="round" stroke-linejoin="round"/>
</svg>
