<svg width="39" height="26" viewBox="0 0 39 26" fill="none" xmlns="http://www.w3.org/2000/svg">
<g id="cartes_bancaires-4f58478f31a1195d2dee740e3a2d632a (1) 1" clip-path="url(#clip0_1070_20784)">
<g id="Clip path group">
<mask id="mask0_1070_20784" style="mask-type:luminance" maskUnits="userSpaceOnUse" x="0" y="0" width="39" height="27">
<g id="roundedCorners">
<path id="Vector" d="M35.75 0.00195312H3.25C1.45507 0.00195312 0 1.45703 0 3.25195V22.752C0 24.5469 1.45507 26.002 3.25 26.002H35.75C37.5449 26.002 39 24.5469 39 22.752V3.25195C39 1.45703 37.5449 0.00195312 35.75 0.00195312Z" fill="white"/>
</g>
</mask>
<g mask="url(#mask0_1070_20784)">
<g id="Group">
<path id="Vector_2" fill-rule="evenodd" clip-rule="evenodd" d="M0 0.00195312H52V52.002H0V0.00195312Z" fill="url(#paint0_linear_1070_20784)"/>
<path id="Vector_3" fill-rule="evenodd" clip-rule="evenodd" d="M21.2226 5.699V12.5338H32.1319C34.0193 12.5338 35.5493 11.0037 35.5493 9.11638C35.5493 7.22901 34.0193 5.699 32.1319 5.699H21.2226ZM20.292 12.5338C20.2298 11.1894 19.8945 9.98376 19.3292 8.96007C18.7001 7.82095 17.7863 6.9071 16.6471 6.27804C15.508 5.64897 14.1436 5.30469 12.6134 5.30469H11.1676C9.63743 5.30469 8.27303 5.64897 7.1339 6.27804C5.99478 6.9071 5.08093 7.82095 4.45186 8.96007C3.8228 10.0992 3.47852 11.4636 3.47852 12.9938C3.47852 14.524 3.8228 15.8884 4.45186 17.0275C5.08093 18.1666 5.99478 19.0805 7.1339 19.7095C8.27303 20.3386 9.63743 20.6829 11.1676 20.6829H12.6134C14.1436 20.6829 15.508 20.3386 16.6471 19.7095C17.7863 19.0805 18.7001 18.1666 19.3292 17.0275C19.8945 16.0038 20.2298 14.7982 20.292 13.4538H12.1534V12.5338H20.292ZM21.2226 13.4538V20.2886H32.1319C34.0193 20.2886 35.5493 18.7586 35.5493 16.8712C35.5493 14.9838 34.0193 13.4538 32.1319 13.4538H21.2226Z" fill="white"/>
</g>
</g>
</g>
</g>
<defs>
<linearGradient id="paint0_linear_1070_20784" x1="4397.67" y1="-112.488" x2="1065.23" y2="5200" gradientUnits="userSpaceOnUse">
<stop stop-color="#002253"/>
<stop offset="0.242548" stop-color="#0082B1"/>
<stop offset="1" stop-color="#0E9641"/>
</linearGradient>
<clipPath id="clip0_1070_20784">
<rect width="39" height="26" fill="white"/>
</clipPath>
</defs>
</svg>
