<svg width="39" height="26" viewBox="0 0 39 26" fill="none" xmlns="http://www.w3.org/2000/svg">
<g id="discover-ac52cd46f89fa40a29a0bfb954e33173 1" clip-path="url(#clip0_1070_20799)">
<g id="319">
<g id="New-Icons">
<g id="Card-Brands">
<g id="Color">
<g id="Discover">
<path id="shape" d="M35.7416 25.5956L35.7451 25.5956C37.2971 25.6089 38.5704 24.34 38.5899 22.7587L38.5899 3.26219C38.5836 2.49745 38.2793 1.76698 37.7444 1.23176C37.2109 0.69789 36.4918 0.401945 35.7416 0.408318L3.24713 0.408304C2.50037 0.401945 1.78128 0.69789 1.2478 1.23176C0.712954 1.76698 0.408581 2.49745 0.402357 3.25888L0.402344 22.7417C0.408581 23.5065 0.712954 24.2369 1.2478 24.7721C1.78128 25.306 2.50037 25.602 3.25059 25.5956H35.7416ZM35.7399 26.4081L35.7381 26.4081L35.7416 26.4081H35.7399Z" fill="white" stroke="black" stroke-opacity="0.2" stroke-width="0.8125"/>
<path id="shape_2" d="M20.4922 26.0022H35.7425C36.5986 26.0094 37.4224 25.6762 38.0327 25.0759C38.643 24.4757 38.9899 23.6575 38.997 22.8015V18.9688C33.2383 22.2745 26.9928 24.6483 20.4922 26.0022Z" fill="#F27712"/>
<path id="shape_3" d="M37.6502 15.1082H36.265L34.705 13.0506H34.5571V15.1082H33.4274V9.99789H35.095C36.3995 9.99789 37.1526 10.5358 37.1526 11.5041C37.1526 12.2975 36.6819 12.8086 35.8347 12.97L37.6502 15.1082ZM35.9826 11.5444C35.9826 11.0469 35.606 10.7913 34.9067 10.7913H34.5571V12.3379H34.8798C35.606 12.3379 35.9826 12.0689 35.9826 11.5444ZM29.4736 9.99789H32.6743V10.8586H30.6033V12.0017H32.5936V12.8758H30.6033V14.261H32.6743V15.1217H29.4736V9.99789ZM25.8426 15.2427L23.395 9.98444H24.6323L26.1788 13.4272L27.7388 9.98444H28.9492L26.4747 15.2427H25.8695H25.8426ZM15.6085 15.2293C13.8871 15.2293 12.5423 14.0593 12.5423 12.5396C12.5423 11.0603 13.914 9.8634 15.6354 9.8634C16.1195 9.8634 16.5229 9.95754 17.0205 10.1727V11.3562C16.6437 10.986 16.1367 10.7783 15.6085 10.7779C14.5326 10.7779 13.7123 11.5579 13.7123 12.5396C13.7123 13.5751 14.5192 14.3148 15.6623 14.3148C16.1733 14.3148 16.5633 14.1534 17.0205 13.75V14.9334C16.5095 15.1486 16.0792 15.2293 15.6085 15.2293ZM12.1926 13.5482C12.1926 14.5434 11.3723 15.2293 10.1888 15.2293C9.32812 15.2293 8.7095 14.9334 8.18502 14.261L8.92467 13.6289C9.18019 14.0862 9.61053 14.3148 10.1485 14.3148C10.6595 14.3148 11.0226 14.0055 11.0226 13.602C11.0226 13.3734 10.915 13.1986 10.6864 13.0641C10.4357 12.9425 10.1747 12.8434 9.9064 12.7682C8.84398 12.432 8.48088 12.0689 8.48088 11.3562C8.48088 10.5224 9.26088 9.8903 10.2829 9.8903C10.9285 9.8903 11.5067 10.092 11.9909 10.4686L11.3992 11.141C11.1646 10.8839 10.8327 10.7374 10.4847 10.7375C10.0005 10.7375 9.65088 10.9796 9.65088 11.3024C9.65088 11.5713 9.8526 11.7193 10.525 11.9479C11.8161 12.3513 12.1926 12.7279 12.1926 13.5617V13.5482ZM6.63846 9.99789H7.76812V15.1217H6.63846V9.99789ZM3.00743 15.1217H1.33984V9.99789H3.00743C4.8364 9.99789 6.10053 11.0469 6.10053 12.5531C6.10053 13.3196 5.72398 14.0458 5.06502 14.53C4.50019 14.9334 3.86812 15.1217 2.99398 15.1217H3.00743ZM4.32536 11.2755C3.94881 10.9796 3.51846 10.872 2.77881 10.872H2.4695V14.261H2.77881C3.50502 14.261 3.96226 14.1265 4.32536 13.8575C4.71536 13.5348 4.94398 13.0506 4.94398 12.5531C4.94398 12.0555 4.71536 11.5848 4.32536 11.2755Z" fill="black"/>
<path id="shape_4" d="M20.1701 9.8634C18.6908 9.8634 17.4805 11.0469 17.4805 12.5127C17.4805 14.0727 18.637 15.2427 20.1701 15.2427C21.6763 15.2427 22.8598 14.0593 22.8598 12.5531C22.8598 11.0469 21.6898 9.8634 20.1701 9.8634Z" fill="#F27712"/>
</g>
</g>
</g>
</g>
</g>
</g>
<defs>
<clipPath id="clip0_1070_20799">
<rect width="39" height="26" fill="white"/>
</clipPath>
</defs>
</svg>
