<svg width="20" height="20" viewBox="0 0 20 20" fill="none" xmlns="http://www.w3.org/2000/svg">
<g id="equipement 1">
<path id="Vector" d="M16.3928 10.8034L16.2097 10.6978C16.2372 10.4616 16.251 10.2306 16.251 10C16.251 9.76937 16.2375 9.53813 16.2097 9.30219L16.3928 9.19656C17.1388 8.76594 17.3953 7.80844 16.9647 7.06187L16.0272 5.43844C15.8188 5.07687 15.4816 4.81844 15.0785 4.71031C14.6757 4.6025 14.2541 4.6575 13.8928 4.86656L13.7085 4.97312C13.3338 4.69656 12.93 4.46375 12.501 4.27688V4.0625C12.501 3.20094 11.8 2.5 10.9385 2.5H9.06346C8.2019 2.5 7.50096 3.20094 7.50096 4.0625V4.27688C7.0719 4.46375 6.66815 4.69656 6.29346 4.97312L6.10878 4.86625C5.74721 4.65781 5.32596 4.60188 4.92315 4.71031C4.52003 4.81844 4.18284 5.07687 3.9744 5.43844L3.0369 7.06219C2.60659 7.80844 2.86284 8.76594 3.60909 9.19656L3.79221 9.30219C3.76471 9.53844 3.75096 9.76937 3.75096 10C3.75096 10.2306 3.7644 10.4619 3.79221 10.6978L3.60909 10.8034C2.86315 11.2341 2.60659 12.1916 3.03721 12.9381L3.97471 14.5616C4.18315 14.9231 4.52034 15.1816 4.92346 15.2897C5.32628 15.3975 5.74753 15.3422 6.10909 15.1338L6.29378 15.0269C6.66815 15.3034 7.07221 15.5363 7.50096 15.7231V15.9375C7.50096 16.7991 8.2019 17.5 9.06346 17.5H10.9385C11.8 17.5 12.501 16.7991 12.501 15.9375V15.7231C12.93 15.5363 13.3338 15.3034 13.7082 15.0269L13.8928 15.1338C14.2544 15.3419 14.675 15.3975 15.0785 15.2897C15.4816 15.1816 15.8188 14.9231 16.0272 14.5616L16.9647 12.9378C17.395 12.1916 17.1388 11.2341 16.3925 10.8034H16.3928ZM15.8822 12.3131L14.9447 13.9366C14.8882 14.0341 14.8016 14.07 14.755 14.0825C14.7082 14.0947 14.6153 14.1075 14.5178 14.0509L13.965 13.7319C13.736 13.5991 13.4475 13.6259 13.2463 13.7984C12.7813 14.1962 12.25 14.5025 11.6672 14.7087C11.4175 14.7972 11.2507 15.0331 11.2507 15.2981V15.9375C11.2507 16.11 11.1103 16.25 10.9382 16.25H9.06315C8.89096 16.25 8.75065 16.11 8.75065 15.9375V15.2981C8.75065 15.0331 8.58378 14.7972 8.33409 14.7087C7.75128 14.5025 7.22003 14.1962 6.75503 13.7984C6.63909 13.6994 6.4944 13.6484 6.34846 13.6484C6.24128 13.6484 6.13346 13.6759 6.03596 13.7322L5.48315 14.0513C5.38565 14.1078 5.29284 14.095 5.24596 14.0828C5.1994 14.0703 5.11253 14.0347 5.05628 13.9369L4.11878 12.3137C4.03253 12.1641 4.08378 11.9725 4.23315 11.8866L4.78565 11.5675C5.01471 11.435 5.13596 11.1728 5.08784 10.9125C5.02909 10.5937 5.00034 10.295 5.00034 10C5.00034 9.705 5.02878 9.40625 5.08784 9.0875C5.13596 8.82719 5.01503 8.565 4.78565 8.4325L4.23315 8.11344C4.08378 8.0275 4.03253 7.83563 4.11878 7.68656L5.05628 6.06313C5.11284 5.96563 5.1994 5.92969 5.24596 5.91719C5.29284 5.905 5.38565 5.89219 5.48284 5.94844L6.03565 6.2675C6.26503 6.40062 6.55346 6.37313 6.7544 6.20125C7.21971 5.80344 7.75096 5.49687 8.33378 5.29094C8.58346 5.2025 8.75034 4.96656 8.75034 4.70156V4.06219C8.75034 3.88969 8.89065 3.74969 9.06284 3.74969H10.9378C11.11 3.74969 11.2503 3.88969 11.2503 4.06219V4.70156C11.2503 4.96656 11.4172 5.2025 11.6669 5.29094C12.2497 5.49687 12.781 5.80344 13.2463 6.20125C13.4475 6.37344 13.7357 6.40094 13.965 6.2675L14.5175 5.94844C14.615 5.89188 14.7078 5.90469 14.7547 5.91687C14.8013 5.92937 14.8882 5.965 14.9444 6.06281L15.8819 7.68594C15.9682 7.83562 15.9169 8.02719 15.7675 8.11312L15.215 8.43219C14.986 8.56469 14.8647 8.82688 14.9128 9.08719C14.9716 9.40594 15.0003 9.70469 15.0003 9.99969C15.0003 10.2947 14.9719 10.5934 14.9128 10.9122C14.8647 11.1725 14.9857 11.4347 15.215 11.5672L15.7675 11.8862C15.9169 11.9722 15.9685 12.1641 15.8822 12.3131Z" fill="#33788D"/>
<path id="Vector_2" d="M10 5.9375C7.76 5.9375 5.9375 7.76 5.9375 10C5.9375 12.24 7.76 14.0625 10 14.0625C12.24 14.0625 14.0625 12.24 14.0625 10C14.0625 7.76 12.24 5.9375 10 5.9375ZM10 12.8125C8.44938 12.8125 7.1875 11.5509 7.1875 10C7.1875 8.44906 8.44938 7.1875 10 7.1875C11.5506 7.1875 12.8125 8.44906 12.8125 10C12.8125 11.5509 11.5506 12.8125 10 12.8125Z" fill="#33788D"/>
</g>
</svg>
