<svg width="19" height="18" viewBox="0 0 19 18" fill="none" xmlns="http://www.w3.org/2000/svg">
<g clip-path="url(#clip0_1164_2971)">
<path d="M11.9302 8.5502L4.41858 7.2002V17.1753C4.41858 17.6309 4.7812 18.0002 5.22851 18.0002H18.19C18.6374 18.0002 19 17.6309 19 17.1753V13.5002L11.9302 8.5502Z" fill="#185C37"/>
<path d="M11.9302 0H5.22851C4.7812 0 4.41858 0.369296 4.41858 0.824848V4.5L11.9302 9L15.907 10.35L19 9V4.5L11.9302 0Z" fill="#21A366"/>
<path d="M4.41858 4.5H11.9302V9H4.41858V4.5Z" fill="#107C41"/>
<path opacity="0.1" d="M9.7947 3.6001H4.41858V14.8501H9.7947C10.2414 14.8486 10.6032 14.4802 10.6046 14.0252V4.42495C10.6032 3.97001 10.2414 3.60158 9.7947 3.6001Z" fill="black"/>
<path opacity="0.2" d="M9.35284 4.0498H4.41858V15.2998H9.35284C9.79954 15.2983 10.1613 14.9299 10.1628 14.475V4.87465C10.1613 4.41972 9.79954 4.05128 9.35284 4.0498Z" fill="black"/>
<path opacity="0.2" d="M9.35284 4.0498H4.41858V14.3998H9.35284C9.79954 14.3983 10.1613 14.0299 10.1628 13.575V4.87465C10.1613 4.41972 9.79954 4.05128 9.35284 4.0498Z" fill="black"/>
<path opacity="0.2" d="M8.91098 4.0498H4.41858V14.3998H8.91098C9.35768 14.3983 9.71945 14.0299 9.7209 13.575V4.87465C9.71945 4.41972 9.35768 4.05128 8.91098 4.0498Z" fill="black"/>
<path d="M0.809928 4.0498H8.91099C9.35831 4.0498 9.72092 4.4191 9.72092 4.87465V13.1249C9.72092 13.5805 9.35831 13.9498 8.91099 13.9498H0.809928C0.362616 13.9498 0 13.5805 0 13.125V4.87465C0 4.4191 0.362616 4.0498 0.809928 4.0498Z" fill="url(#paint0_linear_1164_2971)"/>
<path d="M2.50842 11.681L4.21224 8.99226L2.65115 6.31836H3.90691L4.75882 8.02836C4.83747 8.19081 4.89137 8.31141 4.92054 8.39106H4.93159C4.98755 8.26146 5.04647 8.13561 5.10833 8.0135L6.019 6.31926H7.17181L5.57095 8.97742L7.21247 11.681H5.98587L5.00184 9.80406C4.95549 9.7242 4.91616 9.64032 4.88431 9.55342H4.86973C4.84091 9.63856 4.80266 9.72008 4.75573 9.79642L3.74255 11.681H2.50842Z" fill="white"/>
<path d="M18.1901 0H11.9302V4.5H19V0.824848C19 0.369296 18.6374 0 18.1901 0Z" fill="#33C481"/>
<path d="M11.9302 9H19V13.5H11.9302V9Z" fill="#107C41"/>
</g>
<defs>
<linearGradient id="paint0_linear_1164_2971" x1="1.68872" y1="3.40528" x2="8.20747" y2="14.4913" gradientUnits="userSpaceOnUse">
<stop stop-color="#18884F"/>
<stop offset="0.5" stop-color="#117E43"/>
<stop offset="1" stop-color="#0B6631"/>
</linearGradient>
<clipPath id="clip0_1164_2971">
<rect width="19" height="18" fill="white"/>
</clipPath>
</defs>
</svg>
