<svg width="24" height="24" viewBox="0 0 24 24" fill="none" xmlns="http://www.w3.org/2000/svg">
<path d="M18.5625 12C18.5625 12.1492 18.5032 12.2923 18.3977 12.3977C18.2923 12.5032 18.1492 12.5625 18 12.5625H6C5.85082 12.5625 5.70774 12.5032 5.60225 12.3977C5.49676 12.2923 5.4375 12.1492 5.4375 12C5.4375 11.8508 5.49676 11.7077 5.60225 11.6023C5.70774 11.4968 5.85082 11.4375 6 11.4375H18C18.1492 11.4375 18.2923 11.4968 18.3977 11.6023C18.5032 11.7077 18.5625 11.8508 18.5625 12ZM21.75 6.9375H2.25C2.10082 6.9375 1.95774 6.99676 1.85225 7.10225C1.74676 7.20774 1.6875 7.35082 1.6875 7.5C1.6875 7.64918 1.74676 7.79226 1.85225 7.89775C1.95774 8.00324 2.10082 8.0625 2.25 8.0625H21.75C21.8992 8.0625 22.0423 8.00324 22.1477 7.89775C22.2532 7.79226 22.3125 7.64918 22.3125 7.5C22.3125 7.35082 22.2532 7.20774 22.1477 7.10225C22.0423 6.99676 21.8992 6.9375 21.75 6.9375ZM14.25 15.9375H9.75C9.60082 15.9375 9.45774 15.9968 9.35225 16.1023C9.24676 16.2077 9.1875 16.3508 9.1875 16.5C9.1875 16.6492 9.24676 16.7923 9.35225 16.8977C9.45774 17.0032 9.60082 17.0625 9.75 17.0625H14.25C14.3992 17.0625 14.5423 17.0032 14.6477 16.8977C14.7532 16.7923 14.8125 16.6492 14.8125 16.5C14.8125 16.3508 14.7532 16.2077 14.6477 16.1023C14.5423 15.9968 14.3992 15.9375 14.25 15.9375Z" fill="black"/>
</svg>
