<svg width="20" height="20" viewBox="0 0 20 20" fill="none" xmlns="http://www.w3.org/2000/svg">
<g id="headset">
<path id="Vector" d="M3.33398 11.2497V10.833C3.33398 6.69134 6.31898 3.33301 10.0007 3.33301C13.6823 3.33301 16.6673 6.69134 16.6673 10.833V11.2497" stroke="#33788D" stroke-width="1.25" stroke-linecap="round" stroke-linejoin="round"/>
<path id="Vector_2" d="M1.66797 14.5323V12.9682C1.66803 12.5965 1.79231 12.2355 2.02106 11.9426C2.24981 11.6497 2.5699 11.4416 2.93047 11.3515L3.33464 11.2498L4.37964 10.9882C4.45337 10.9697 4.53035 10.9682 4.60473 10.984C4.67911 10.9997 4.74892 11.0322 4.80886 11.0789C4.8688 11.1257 4.91728 11.1855 4.95063 11.2538C4.98398 11.3221 5.00131 11.3972 5.0013 11.4732V16.0265C5.00131 16.1025 4.98398 16.1775 4.95063 16.2459C4.91728 16.3142 4.8688 16.374 4.80886 16.4208C4.74892 16.4675 4.67911 16.5 4.60473 16.5157C4.53035 16.5314 4.45337 16.53 4.37964 16.5115L2.92964 16.149C2.56922 16.0587 2.24932 15.8506 2.02073 15.5577C1.79214 15.2648 1.66798 14.9039 1.66797 14.5323ZM18.3346 14.5323V12.9682C18.3346 12.5965 18.2103 12.2355 17.9815 11.9426C17.7528 11.6497 17.4327 11.4416 17.0721 11.3515L16.668 11.2498L15.6221 10.9882C15.5485 10.9698 15.4716 10.9685 15.3973 10.9843C15.323 11.0001 15.2533 11.0326 15.1935 11.0793C15.1337 11.1261 15.0852 11.1858 15.0519 11.2541C15.0187 11.3223 15.0013 11.3972 15.0013 11.4732V16.0265C15.0013 16.1024 15.0187 16.1774 15.0519 16.2456C15.0852 16.3138 15.1337 16.3736 15.1935 16.4203C15.2533 16.4671 15.323 16.4996 15.3973 16.5154C15.4716 16.5312 15.5485 16.5299 15.6221 16.5115L17.0721 16.149C17.4327 16.0589 17.7528 15.8508 17.9815 15.5579C18.2103 15.265 18.3346 14.904 18.3346 14.5323Z" stroke="#33788D" stroke-width="1.25" stroke-linecap="round" stroke-linejoin="round"/>
</g>
</svg>
