<svg width="25" height="24" viewBox="0 0 25 24" fill="none" xmlns="http://www.w3.org/2000/svg">
<g id="hourglass 1">
<path id="Vector" d="M12.8334 12C14.6899 12 16.4704 11.2625 17.7831 9.94975C19.0959 8.63699 19.8334 6.85652 19.8334 5H5.83337C5.83337 6.85652 6.57087 8.63699 7.88363 9.94975C9.19638 11.2625 10.9769 12 12.8334 12ZM12.8334 12C14.6899 12 16.4704 12.7375 17.7831 14.0503C19.0959 15.363 19.8334 17.1435 19.8334 19H5.83337C5.83337 17.1435 6.57087 15.363 7.88363 14.0503C9.19638 12.7375 10.9769 12 12.8334 12ZM5.83337 2H19.8334M5.83337 22H19.8334" stroke="#FCFAF7" stroke-width="1.5" stroke-linecap="round" stroke-linejoin="round"/>
</g>
</svg>
