<svg width="49" height="49" viewBox="0 0 49 49" fill="none" xmlns="http://www.w3.org/2000/svg">
<rect x="0.666016" y="0.0581055" width="48" height="48" rx="8" fill="#CCDDE3"/>
<path d="M20.666 19.0581H16.666C16.1356 19.0581 15.6269 19.2688 15.2518 19.6439C14.8767 20.019 14.666 20.5277 14.666 21.0581V31.0581C14.666 31.5885 14.8767 32.0972 15.2518 32.4723C15.6269 32.8474 16.1356 33.0581 16.666 33.0581H32.666C33.1964 33.0581 33.7052 32.8474 34.0802 32.4723C34.4553 32.0972 34.666 31.5885 34.666 31.0581V21.0581C34.666 20.5277 34.4553 20.019 34.0802 19.6439C33.7052 19.2688 33.1964 19.0581 32.666 19.0581H28.666M20.666 19.0581V15.6581C20.666 15.499 20.7292 15.3464 20.8418 15.2338C20.9543 15.1213 21.1069 15.0581 21.266 15.0581H28.066C28.2251 15.0581 28.3778 15.1213 28.4903 15.2338C28.6028 15.3464 28.666 15.499 28.666 15.6581V19.0581M20.666 19.0581H28.666" stroke="#19677F" stroke-width="1.5"/>
</svg>
