<svg width="20" height="21" viewBox="0 0 20 21" fill="none" xmlns="http://www.w3.org/2000/svg">
<path d="M5.83594 8L10.0027 10.5L14.1694 8" stroke="#4C4B4A" stroke-width="1.25" stroke-linecap="round" stroke-linejoin="round"/>
<path d="M8.33472 17.167H3.33466C2.89262 17.167 2.46869 16.9914 2.15613 16.6788C1.84357 16.3663 1.66797 15.9423 1.66797 15.5003V5.50018C1.66797 5.05815 1.84357 4.63422 2.15613 4.32166C2.46869 4.00909 2.89262 3.8335 3.33466 3.8335H16.6681C17.1102 3.8335 17.5341 4.00909 17.8467 4.32166C18.1592 4.63422 18.3348 5.05815 18.3348 5.50018V11.2144" stroke="#4C4B4A" stroke-width="1.25" stroke-linecap="round"/>
<path d="M7.23921 17.167H16.6697C17.1118 17.167 17.5357 16.9914 17.8483 16.6788C18.1608 16.3663 18.3364 15.9423 18.3364 15.5003V5.50018C18.3364 5.05815 18.1608 4.63422 17.8483 4.32166C17.5357 4.00909 17.1118 3.8335 16.6697 3.8335H3.33624C2.89421 3.8335 2.47028 4.00909 2.15772 4.32166C1.84516 4.63422 1.66956 5.05815 1.66956 5.50018V11.2144" stroke="#4C4B4A" stroke-width="1.25" stroke-linecap="round"/>
</svg>
