<svg width="20" height="21" viewBox="0 0 20 21" fill="none" xmlns="http://www.w3.org/2000/svg">
<path d="M2.14418 7.55253L9.3601 3.94498C9.42946 3.91036 9.50591 3.89233 9.58343 3.89233C9.66095 3.89233 9.73741 3.91036 9.80677 3.94498L17.0227 7.55336C17.1057 7.59491 17.1755 7.65874 17.2242 7.73771C17.273 7.81667 17.2988 7.90764 17.2988 8.00045C17.2988 8.09326 17.273 8.18423 17.2242 8.26319C17.1755 8.34216 17.1057 8.40598 17.0227 8.44754L9.80677 12.0551C9.73741 12.0897 9.66095 12.1077 9.58343 12.1077C9.50591 12.1077 9.42946 12.0897 9.3601 12.0551L2.14418 8.44671C2.06119 8.40515 1.99141 8.34132 1.94264 8.26236C1.89387 8.1834 1.86804 8.09242 1.86804 7.99962C1.86804 7.90681 1.89387 7.81583 1.94264 7.73687C1.99141 7.65791 2.06119 7.59408 2.14418 7.55253Z" stroke="#191919" stroke-width="1.25" stroke-linecap="round" stroke-linejoin="round"/>
<path d="M18.7502 11.3335V8.41684L17.0835 7.5835M3.75 9.25018V13.7602C3.74994 14.0756 3.83933 14.3844 4.00778 14.651C4.17624 14.9175 4.41685 15.1308 4.70168 15.2661L8.86839 17.2444C9.09182 17.3506 9.33606 17.4056 9.5834 17.4056C9.83075 17.4056 10.075 17.3506 10.2984 17.2444L14.4651 15.2661C14.75 15.1308 14.9906 14.9175 15.159 14.651C15.3275 14.3844 15.4169 14.0756 15.4168 13.7602V9.25018" stroke="#191919" stroke-width="1.25" stroke-linecap="round" stroke-linejoin="round"/>
</svg>
