<svg width="49" height="49" viewBox="0 0 49 49" fill="none" xmlns="http://www.w3.org/2000/svg">
<rect x="0.333008" y="0.0581055" width="48" height="48" rx="8" fill="#D3DCDA"/>
<g clip-path="url(#clip0_1648_12078)">
<mask id="mask0_1648_12078" style="mask-type:luminance" maskUnits="userSpaceOnUse" x="12" y="12" width="25" height="25">
<path d="M12.333 12.0581H36.333V36.0581H12.333V12.0581Z" fill="white"/>
</mask>
<g mask="url(#mask0_1648_12078)">
<path d="M31.333 25.5581V30.7101C31.3329 30.8157 31.3049 30.9194 31.2519 31.0107C31.1988 31.102 31.1226 31.1777 31.031 31.2301L24.631 34.8881C24.5403 34.94 24.4375 34.9673 24.333 34.9673C24.2285 34.9673 24.1257 34.94 24.035 34.8881L17.635 31.2311C17.5432 31.1786 17.4669 31.1027 17.4139 31.0112C17.3609 30.9197 17.333 30.8159 17.333 30.7101V25.0581M24.333 34.5581V29.0581M35.333 20.0581L23.333 13.0581C20.333 18.0581 16.333 15.0581 13.333 20.0581L25.333 27.0581C28.333 22.0581 32.333 25.0581 35.333 20.0581Z" stroke="#396359" stroke-width="1.5" stroke-linecap="round" stroke-linejoin="round"/>
</g>
</g>
<defs>
<clipPath id="clip0_1648_12078">
<rect width="24" height="24" fill="white" transform="translate(12.333 12.0581)"/>
</clipPath>
</defs>
</svg>
