<svg width="20" height="21" viewBox="0 0 20 21" fill="none" xmlns="http://www.w3.org/2000/svg">
<path d="M0.833984 17.1667V16.3334C0.833984 14.7863 1.44857 13.3025 2.54255 12.2086C3.63652 11.1146 5.12027 10.5 6.66739 10.5C8.2145 10.5 9.69825 11.1146 10.7922 12.2086C11.8862 13.3025 12.5008 14.7863 12.5008 16.3334V17.1667" stroke="#191919" stroke-width="1.04168" stroke-linecap="round"/>
<path d="M10.834 12.1667C10.834 11.0616 11.273 10.0018 12.0544 9.2204C12.8358 8.43899 13.8956 8 15.0007 8C15.5479 8 16.0897 8.10777 16.5952 8.31717C17.1008 8.52657 17.5601 8.83349 17.947 9.2204C18.3339 9.60732 18.6409 10.0667 18.8502 10.5722C19.0596 11.0777 19.1674 11.6195 19.1674 12.1667V12.5834" stroke="#191919" stroke-width="1.04168" stroke-linecap="round"/>
<path d="M6.66736 10.5001C7.55142 10.5001 8.39928 10.1489 9.02441 9.52377C9.64954 8.89864 10.0007 8.05078 10.0007 7.16672C10.0007 6.28265 9.64954 5.43479 9.02441 4.80967C8.39928 4.18454 7.55142 3.83334 6.66736 3.83334C5.78329 3.83334 4.93544 4.18454 4.31031 4.80967C3.68518 5.43479 3.33398 6.28265 3.33398 7.16672C3.33398 8.05078 3.68518 8.89864 4.31031 9.52377C4.93544 10.1489 5.78329 10.5001 6.66736 10.5001ZM15.0008 8.00006C15.6638 8.00006 16.2997 7.73667 16.7686 7.26782C17.2374 6.79897 17.5008 6.16308 17.5008 5.50003C17.5008 4.83698 17.2374 4.20109 16.7686 3.73224C16.2997 3.2634 15.6638 3 15.0008 3C14.3377 3 13.7018 3.2634 13.233 3.73224C12.7642 4.20109 12.5008 4.83698 12.5008 5.50003C12.5008 6.16308 12.7642 6.79897 13.233 7.26782C13.7018 7.73667 14.3377 8.00006 15.0008 8.00006Z" stroke="#191919" stroke-width="1.04168" stroke-linecap="round" stroke-linejoin="round"/>
</svg>
