<svg width="48" height="49" viewBox="0 0 48 49" fill="none" xmlns="http://www.w3.org/2000/svg">
<rect y="0.0581055" width="48" height="48" rx="8" fill="#E7D0DB"/>
<path d="M24 24.0581C25.8565 24.0581 27.637 23.3206 28.9497 22.0079C30.2625 20.6951 31 18.9146 31 17.0581H17C17 18.9146 17.7375 20.6951 19.0503 22.0079C20.363 23.3206 22.1435 24.0581 24 24.0581ZM24 24.0581C25.8565 24.0581 27.637 24.7956 28.9497 26.1084C30.2625 27.4211 31 29.2016 31 31.0581H17C17 29.2016 17.7375 27.4211 19.0503 26.1084C20.363 24.7956 22.1435 24.0581 24 24.0581ZM17 14.0581H31M17 34.0581H31" stroke="#942C5E" stroke-width="1.5" stroke-linecap="round" stroke-linejoin="round"/>
</svg>
