<svg width="20" height="21" viewBox="0 0 20 21" fill="none" xmlns="http://www.w3.org/2000/svg">
<g id="Icones">
<path id="Vector" d="M5 5.50012H15.0001M5 8.83349H15.0001M10.8334 12.1669H15.0001M10.8334 15.5002H15.0001M1.66663 18.3336V2.66675C1.66663 2.53414 1.71931 2.40697 1.81307 2.3132C1.90684 2.21943 2.03402 2.16675 2.16663 2.16675H17.8335C17.9661 2.16675 18.0933 2.21943 18.187 2.3132C18.2808 2.40697 18.3335 2.53414 18.3335 2.66675V18.3336C18.3335 18.4662 18.2808 18.5934 18.187 18.6872C18.0933 18.7809 17.9661 18.8336 17.8335 18.8336H2.16663C2.03402 18.8336 1.90684 18.7809 1.81307 18.6872C1.71931 18.5934 1.66663 18.4662 1.66663 18.3336Z" stroke="#191919" stroke-width="1.25" stroke-linecap="round" stroke-linejoin="round"/>
<path id="Vector_2" d="M5 15.5001V12.1667H7.50003V15.5001H5Z" stroke="#191919" stroke-width="1.25" stroke-linecap="round" stroke-linejoin="round"/>
</g>
</svg>
