<svg width="20" height="21" viewBox="0 0 20 21" fill="none" xmlns="http://www.w3.org/2000/svg">
<path d="M2.5 14.2501H17.5002M2.5 10.5001H17.5002M17.5002 6.75004H2.5M10.0001 18.0002V3M2.5 17.5002V3.50001C2.5 3.3674 2.55268 3.24022 2.64645 3.14645C2.74022 3.05268 2.8674 3 3.00001 3H17.0002C17.1328 3 17.26 3.05268 17.3537 3.14645C17.4475 3.24022 17.5002 3.3674 17.5002 3.50001V17.5002C17.5002 17.6328 17.4475 17.76 17.3537 17.8537C17.26 17.9475 17.1328 18.0002 17.0002 18.0002H3.00001C2.8674 18.0002 2.74022 17.9475 2.64645 17.8537C2.55268 17.76 2.5 17.6328 2.5 17.5002Z" stroke="#191919" stroke-width="1.25"/>
</svg>
