<svg width="20" height="21" viewBox="0 0 20 21" fill="none" xmlns="http://www.w3.org/2000/svg">
<path d="M5.6817 18.8334V16.4526C5.43337 13.9717 2.5 12.6434 2.5 8.83332C2.5 5.02494 4.77253 2.1199 9.31841 2.16657C12.591 2.20157 15.6818 4.07159 15.6818 7.88164L17.5002 10.7383C17.5002 12.6434 15.6818 12.6434 15.6818 12.6434C15.6818 12.6434 16.1368 17.4051 12.0451 17.4051V18.8334" stroke="#191919" stroke-width="1.25" stroke-linecap="round" stroke-linejoin="round"/>
<path d="M9.16669 10.5001C9.60872 10.5001 10.0326 10.3245 10.3452 10.012C10.6578 9.6994 10.8334 9.27547 10.8334 8.83343C10.8334 8.3914 10.6578 7.96747 10.3452 7.65491C10.0326 7.34235 9.60872 7.16675 9.16669 7.16675C8.72465 7.16675 8.30073 7.34235 7.98816 7.65491C7.6756 7.96747 7.5 8.3914 7.5 8.83343C7.5 9.27547 7.6756 9.6994 7.98816 10.012C8.30073 10.3245 8.72465 10.5001 9.16669 10.5001Z" stroke="#191919" stroke-width="1.25" stroke-linecap="round" stroke-linejoin="round"/>
<path d="M9.16678 11.3336C9.82983 11.3336 10.4657 11.0702 10.9346 10.6013C11.4034 10.1325 11.6668 9.49658 11.6668 8.83353C11.6668 8.17048 11.4034 7.53458 10.9346 7.06574C10.4657 6.59689 9.82983 6.3335 9.16678 6.3335C8.50373 6.3335 7.86784 6.59689 7.39899 7.06574C6.93014 7.53458 6.66675 8.17048 6.66675 8.83353C6.66675 9.49658 6.93014 10.1325 7.39899 10.6013C7.86784 11.0702 8.50373 11.3336 9.16678 11.3336Z" stroke="#191919" stroke-width="1.25" stroke-linecap="round" stroke-linejoin="round" stroke-dasharray="0.3 2"/>
</svg>
