<svg width="40" height="40" viewBox="0 0 40 40" fill="none" xmlns="http://www.w3.org/2000/svg">
<g clip-path="url(#clip0_87_23273)">
<path d="M12.8041 18.4358C11.8189 18.1522 10.8338 18.0083 9.87543 18.0083C8.39557 18.0083 7.16074 18.3464 6.20325 18.7606C7.12633 15.3813 9.34382 9.55032 13.7612 8.89368C14.1703 8.83284 14.5055 8.53703 14.6171 8.13885L15.5826 4.68569C15.664 4.39366 15.6157 4.08107 15.4492 3.82765C15.2826 3.57422 15.0149 3.40513 14.7149 3.36401C14.3889 3.31953 14.0566 3.29688 13.7272 3.29688C8.42494 3.29688 3.17387 8.83116 0.958062 16.7554C-0.342641 21.4043 -0.724041 28.3937 2.47989 32.7931C4.27276 35.2547 6.88843 36.5693 10.2543 36.7006C10.2682 36.701 10.2816 36.7015 10.2954 36.7015C14.4485 36.7015 18.1311 33.9045 19.2514 29.9005C19.9206 27.5067 19.6181 24.9964 18.3988 22.8301C17.1925 20.6881 15.2058 19.1269 12.8041 18.4358Z" fill="#D3DCDA"/>
<path d="M38.8008 22.8305C37.5945 20.6881 35.6078 19.1269 33.2061 18.4358C32.2209 18.1522 31.2357 18.0083 30.2778 18.0083C28.798 18.0083 27.5627 18.3464 26.6052 18.7606C27.5283 15.3813 29.7458 9.55032 34.1636 8.89368C34.5727 8.83284 34.9075 8.53703 35.0195 8.13885L35.985 4.68569C36.0664 4.39366 36.0181 4.08107 35.8515 3.82765C35.6854 3.57422 35.4177 3.40513 35.1173 3.36401C34.7917 3.31953 34.4594 3.29688 34.1296 3.29688C28.8273 3.29688 23.5763 8.83116 21.36 16.7554C20.0597 21.4043 19.6783 28.3937 22.8827 32.7939C24.6751 35.2552 27.2912 36.5701 30.6567 36.701C30.6705 36.7015 30.684 36.7019 30.6982 36.7019C34.8508 36.7019 38.5339 33.9049 39.6542 29.9009C40.3226 27.5072 40.0197 24.9964 38.8008 22.8305Z" fill="#D3DCDA"/>
</g>
<defs>
<clipPath id="clip0_87_23273">
<rect width="40" height="39.9996" fill="white"/>
</clipPath>
</defs>
</svg>
