<svg width="39" height="26" viewBox="0 0 39 26" fill="none" xmlns="http://www.w3.org/2000/svg">
<g id="mastercard-4d8844094130711885b5e41b28c9848f 1" clip-path="url(#clip0_1070_20778)">
<g id="Group">
<path id="Vector" d="M35.75 0.00195312H3.25C1.45507 0.00195312 0 1.45703 0 3.25195V22.752C0 24.5469 1.45507 26.002 3.25 26.002H35.75C37.5449 26.002 39 24.5469 39 22.752V3.25195C39 1.45703 37.5449 0.00195312 35.75 0.00195312Z" fill="#252525"/>
<path id="Vector_2" d="M14.625 21.127C19.1123 21.127 22.75 17.4893 22.75 13.002C22.75 8.51464 19.1123 4.87695 14.625 4.87695C10.1377 4.87695 6.5 8.51464 6.5 13.002C6.5 17.4893 10.1377 21.127 14.625 21.127Z" fill="#EB001B"/>
<path id="Vector_3" d="M24.375 21.127C28.8623 21.127 32.5 17.4893 32.5 13.002C32.5 8.51464 28.8623 4.87695 24.375 4.87695C19.8877 4.87695 16.25 8.51464 16.25 13.002C16.25 17.4893 19.8877 21.127 24.375 21.127Z" fill="#F79E1B"/>
<path id="Vector_4" fill-rule="evenodd" clip-rule="evenodd" d="M19.5 6.50195C21.4735 7.98429 22.75 10.3443 22.75 13.0025C22.75 15.6608 21.4735 18.0208 19.5 19.5031C17.5265 18.0208 16.25 15.6608 16.25 13.0025C16.25 10.3443 17.5265 7.98429 19.5 6.50195Z" fill="#FF5F00"/>
</g>
</g>
<defs>
<clipPath id="clip0_1070_20778">
<rect width="39" height="26" fill="white"/>
</clipPath>
</defs>
</svg>
