<svg width="20" height="20" viewBox="0 0 20 20" fill="none" xmlns="http://www.w3.org/2000/svg">
<g id="microscope">
<path id="Vector" d="M15.8346 18.3337H5.83464M5.83464 18.3337H4.16797M5.83464 18.3337V15.8337M15.8346 13.3337H8.33464M13.3346 1.66699H10.0013M10.0013 5.83366C7.5013 5.83366 5.83464 6.66699 5.83464 9.16699V10.8337M13.3346 3.83366V9.50033C13.3346 9.63293 13.282 9.76011 13.1882 9.85388C13.0944 9.94765 12.9672 10.0003 12.8346 10.0003H10.5013C10.3687 10.0003 10.2415 9.94765 10.1477 9.85388C10.054 9.76011 10.0013 9.63293 10.0013 9.50033V3.83366C10.0013 3.70105 10.054 3.57387 10.1477 3.48011C10.2415 3.38634 10.3687 3.33366 10.5013 3.33366H12.8346C12.9672 3.33366 13.0944 3.38634 13.1882 3.48011C13.282 3.57387 13.3346 3.70105 13.3346 3.83366Z" stroke="#33788D" stroke-width="1.25" stroke-linecap="round" stroke-linejoin="round"/>
<path id="Vector_2" d="M5.83398 15.8335C5.17094 15.8335 4.53506 15.5701 4.06622 15.1013C3.59738 14.6324 3.33398 13.9965 3.33398 13.3335C3.33398 12.6705 3.59738 12.0346 4.06622 11.5657C4.53506 11.0969 5.17094 10.8335 5.83398 10.8335C6.49703 10.8335 7.13291 11.0969 7.60175 11.5657C8.07059 12.0346 8.33398 12.6705 8.33398 13.3335C8.33398 13.9965 8.07059 14.6324 7.60175 15.1013C7.13291 15.5701 6.49703 15.8335 5.83398 15.8335Z" stroke="#33788D" stroke-width="1.25" stroke-linecap="round" stroke-linejoin="round"/>
</g>
</svg>
