<svg width="18" height="18" viewBox="0 0 18 18" fill="none" xmlns="http://www.w3.org/2000/svg">
<path d="M15 9V4.31175C15 4.25255 14.9884 4.19392 14.9658 4.13922C14.9431 4.08453 14.9099 4.03484 14.868 3.993L12.507 1.632C12.4227 1.54758 12.3083 1.50011 12.189 1.5H3.45C3.33065 1.5 3.21619 1.54741 3.1318 1.6318C3.04741 1.71619 3 1.83065 3 1.95V16.05C3 16.1693 3.04741 16.2838 3.1318 16.3682C3.21619 16.4526 3.33065 16.5 3.45 16.5H8.25M6 7.5H12M6 4.5H9M6 10.5H8.25" stroke="#323231" stroke-width="1.125" stroke-linecap="round" stroke-linejoin="round"/>
<path d="M12 1.5V4.05C12 4.16935 12.0474 4.28381 12.1318 4.3682C12.2162 4.45259 12.3307 4.5 12.45 4.5H15" stroke="#323231" stroke-width="1.125" stroke-linecap="round" stroke-linejoin="round"/>
<path d="M13.5503 17.3908L13.5507 17.3911C13.9499 17.5866 14.3842 17.6839 14.8524 17.6839C15.3257 17.6839 15.7599 17.5897 16.1535 17.3999L16.1536 17.3999L16.1559 17.3987C16.2331 17.3587 16.296 17.3059 16.3393 17.2385C16.3829 17.1707 16.4033 17.0932 16.4033 17.0094C16.4033 16.8921 16.358 16.7893 16.273 16.7049C16.1869 16.6192 16.0805 16.5755 15.9589 16.5755C15.9063 16.5755 15.838 16.5956 15.7631 16.6242C15.5104 16.717 15.2075 16.7646 14.8524 16.7646C14.4219 16.7646 14.0372 16.6388 13.6956 16.3868C13.3871 16.1591 13.1546 15.8671 12.9978 15.5091H14.9648C15.0765 15.5091 15.1749 15.4738 15.2515 15.3984C15.3342 15.3229 15.3746 15.2239 15.3746 15.1096C15.3746 14.9987 15.3326 14.9015 15.253 14.8223C15.1734 14.7431 15.0759 14.7016 14.9648 14.7016H12.8085C12.8018 14.6173 12.7986 14.553 12.7986 14.5079C12.7986 14.4151 12.8035 14.3276 12.813 14.2454H15.397C15.5076 14.2454 15.6034 14.2041 15.6781 14.1232C15.7554 14.0457 15.7982 13.9523 15.7982 13.846C15.7982 13.7362 15.7569 13.6413 15.6766 13.5672C15.6021 13.4873 15.5069 13.4465 15.397 13.4465H13.0362C13.1959 13.1057 13.4214 12.828 13.7128 12.6119C14.0423 12.3717 14.4211 12.2511 14.8524 12.2511C15.207 12.2511 15.5095 12.2987 15.7619 12.3911C15.8336 12.4207 15.901 12.4403 15.9589 12.4403C16.0805 12.4403 16.1869 12.3965 16.273 12.3109C16.358 12.2265 16.4033 12.1237 16.4033 12.0064C16.4033 11.9205 16.3832 11.8413 16.3393 11.7729C16.2955 11.7048 16.2318 11.6532 16.1535 11.6159C15.7599 11.4261 15.3257 11.3319 14.8524 11.3319C14.114 11.3319 13.4957 11.5409 13.0043 11.964C12.5409 12.3623 12.2101 12.857 12.0122 13.4465H11.4811C11.37 13.4465 11.2725 13.4881 11.1929 13.5673C11.1172 13.6425 11.0799 13.7376 11.0799 13.846C11.0799 13.9543 11.117 14.0505 11.1899 14.1302L11.1896 14.1305L11.196 14.1363C11.2762 14.2087 11.3727 14.2454 11.4811 14.2454H11.8429C11.8357 14.3587 11.832 14.4464 11.832 14.5079C11.832 14.5826 11.833 14.6473 11.8351 14.7016H11.4811C11.37 14.7016 11.2725 14.7431 11.1929 14.8223L11.1928 14.8222L11.1899 14.8254C11.117 14.9051 11.0799 15.0013 11.0799 15.1096C11.0799 15.2179 11.117 15.3141 11.1899 15.3938L11.1896 15.3941L11.196 15.3999C11.2762 15.4723 11.3727 15.5091 11.4811 15.5091H11.976C12.1011 15.9124 12.2932 16.274 12.5523 16.5933C12.8256 16.93 13.1585 17.196 13.5503 17.3908Z" fill="#323231" stroke="#323231" stroke-width="0.18"/>
</svg>
