<svg width="18" height="18" viewBox="0 0 18 18" fill="none" xmlns="http://www.w3.org/2000/svg">
<path d="M9 15.75V5.25M9 5.25C9 4.85218 9.15803 4.47064 9.43934 4.18934C9.72064 3.90804 10.1022 3.75 10.5 3.75H16.05C16.1091 3.75 16.1676 3.76164 16.2222 3.78425C16.2768 3.80687 16.3264 3.84002 16.3682 3.8818C16.41 3.92359 16.4431 3.9732 16.4657 4.02779C16.4884 4.08239 16.5 4.14091 16.5 4.2V14.0355M9 5.25C9 4.85218 8.84196 4.47064 8.56066 4.18934C8.27935 3.90804 7.89782 3.75 7.5 3.75H1.95C1.83065 3.75 1.71619 3.79741 1.6318 3.8818C1.54741 3.96619 1.5 4.08065 1.5 4.2V14.0355M10.5 14.25H16.5M7.5 14.25H1.5" stroke="#323231" stroke-width="1.125" stroke-linecap="round"/>
<path d="M10.5 14.25C10.1022 14.25 9.72064 14.408 9.43934 14.6893C9.15804 14.9706 9 15.3522 9 15.75C9 15.3522 8.84196 14.9706 8.56066 14.6893C8.27936 14.408 7.89782 14.25 7.5 14.25" stroke="#323231" stroke-width="1.125" stroke-linecap="round" stroke-linejoin="round"/>
</svg>
