<svg width="39" height="26" viewBox="0 0 39 26" fill="none" xmlns="http://www.w3.org/2000/svg">
<g id="Mon panier (2 articles)-19 (1) 1" clip-path="url(#clip0_1070_20809)">
<g id="Group">
<path id="Vector" d="M3.25092 1.08301H35.7509C36.9429 1.08301 37.9179 2.05801 37.9179 3.24995V22.7499C37.9179 23.9419 36.9429 24.9169 35.7509 24.9169H3.25092C2.67674 24.9152 2.12657 24.6863 1.72056 24.2803C1.31455 23.8743 1.0857 23.3241 1.08398 22.7499V3.24995C1.08398 2.05801 2.05898 1.08301 3.25092 1.08301Z" fill="white"/>
<path id="Vector_2" d="M35.75 1.08306C36.9419 1.08306 37.9169 2.05806 37.9169 3.25V22.75C37.9169 23.9419 36.9419 24.9169 35.75 24.9169H3.25C2.67582 24.9152 2.12565 24.6864 1.71964 24.2804C1.31363 23.8744 1.08478 23.3242 1.08306 22.75V3.25C1.08306 2.05806 2.05806 1.08306 3.25 1.08306H35.75ZM35.75 0H3.25C1.40806 0 0 1.40806 0 3.25V22.75C0 24.5919 1.40806 26 3.25 26H35.75C37.5919 26 39 24.5919 39 22.75V3.25C39 1.40806 37.5919 0 35.75 0Z" fill="#DDDDDD"/>
<path id="Vector_3" d="M15.059 10.9419H13.3259C13.2698 10.9457 13.2169 10.9696 13.177 11.0094C13.1371 11.0491 13.113 11.1019 13.109 11.158L12.459 15.4919C12.459 15.6 12.459 15.708 12.5679 15.708H13.3259C13.3821 15.7042 13.435 15.6803 13.4748 15.6406C13.5147 15.6008 13.5389 15.548 13.5429 15.4919L13.759 14.3C13.759 14.1919 13.8679 14.083 13.9759 14.083H14.5179C15.6009 14.083 16.2509 13.5419 16.4679 12.458C16.5759 12.025 16.4679 11.5919 16.2509 11.375C16.1429 11.05 15.709 10.9419 15.059 10.9419ZM15.2759 12.5669C15.1679 13.2169 14.734 13.2169 14.3009 13.2169H14.084L14.3009 12.133C14.3009 12.025 14.409 12.025 14.409 12.025H14.5179C14.8429 12.025 15.059 12.025 15.2759 12.2419C15.2759 12.133 15.384 12.35 15.2759 12.5669ZM20.1509 12.458H19.3929C19.284 12.458 19.284 12.458 19.284 12.5669V12.783L19.1759 12.675C18.959 12.458 18.634 12.35 18.2009 12.35C17.334 12.35 16.5759 13 16.359 13.975C16.2509 14.408 16.359 14.95 16.684 15.1669C16.9009 15.4919 17.334 15.6 17.659 15.6C18.4179 15.6 18.7429 15.1669 18.7429 15.1669V15.383C18.7429 15.4919 18.7429 15.6 18.8509 15.6H19.609C19.6653 15.5962 19.7183 15.5721 19.7582 15.5322C19.798 15.4923 19.8221 15.4393 19.8259 15.383L20.259 12.5669C20.259 12.5669 20.259 12.458 20.1509 12.458ZM19.0679 14.083C18.959 14.5169 18.634 14.8419 18.2009 14.8419C17.984 14.8419 17.7679 14.733 17.659 14.625C17.5509 14.5169 17.4429 14.3 17.5509 14.083C17.659 13.65 17.984 13.325 18.4179 13.325C18.634 13.325 18.8509 13.433 18.959 13.5419C19.0679 13.65 19.0679 13.8669 19.0679 14.083ZM24.484 12.458H23.6179C23.509 12.458 23.509 12.458 23.4009 12.5669L22.3179 14.1919L21.884 12.5669C21.8802 12.5107 21.8562 12.4578 21.8165 12.418C21.7768 12.3781 21.724 12.3539 21.6679 12.35H20.909C20.8009 12.35 20.6929 12.458 20.8009 12.5669L21.6679 15.1669L20.8009 16.358C20.6929 16.4669 20.8009 16.575 20.909 16.575H21.6679C21.7759 16.575 21.7759 16.575 21.884 16.4669L24.5929 12.5669C24.7009 12.675 24.5929 12.458 24.484 12.458Z" fill="#253B80"/>
<path id="Vector_4" d="M27.1918 10.9419H25.4579C25.4019 10.9459 25.3492 10.9699 25.3095 11.0096C25.2698 11.0493 25.2458 11.102 25.2418 11.158L24.5918 15.4919C24.5918 15.6 24.5918 15.708 24.6999 15.708H25.5668C25.6749 15.708 25.6749 15.6 25.6749 15.6L25.8918 14.408C25.8918 14.3 25.9999 14.1919 26.1079 14.1919H26.6499C27.7329 14.1919 28.3829 13.65 28.5999 12.5669C28.7079 12.133 28.5999 11.7 28.3829 11.483C28.1668 11.05 27.7329 10.9419 27.1918 10.9419ZM27.2999 12.5669C27.1918 13.2169 26.7579 13.2169 26.3249 13.2169H26.1079L26.3249 12.133C26.3249 12.025 26.4329 12.025 26.4329 12.025H26.5418C26.8668 12.025 27.0829 12.025 27.2999 12.2419C27.4079 12.133 27.4079 12.35 27.2999 12.5669ZM32.1749 12.458H31.4168C31.3079 12.458 31.3079 12.458 31.3079 12.5669V12.783L31.1999 12.675C30.9829 12.458 30.6579 12.35 30.2249 12.35C29.3579 12.35 28.5999 13 28.3829 13.975C28.2749 14.408 28.3829 14.95 28.7079 15.1669C28.9249 15.4919 29.3579 15.6 29.6829 15.6C30.4418 15.6 30.7668 15.1669 30.7668 15.1669V15.383C30.7668 15.4919 30.7668 15.6 30.8749 15.6H31.6329C31.6892 15.5962 31.7422 15.5721 31.7821 15.5322C31.822 15.4923 31.8461 15.4393 31.8499 15.383L32.2829 12.5669C32.3918 12.5669 32.2829 12.458 32.1749 12.458ZM31.0918 14.083C30.9829 14.5169 30.6579 14.8419 30.2249 14.8419C30.0079 14.8419 29.7918 14.733 29.6829 14.625C29.5749 14.5169 29.4668 14.3 29.5749 14.083C29.6829 13.65 30.0079 13.325 30.4418 13.325C30.6579 13.325 30.8749 13.433 30.9829 13.5419C31.0918 13.65 31.0918 13.8669 31.0918 14.083ZM33.1499 11.05L32.4999 15.4919C32.4999 15.6 32.4999 15.708 32.6079 15.708H33.2579C33.3141 15.7042 33.367 15.6803 33.4068 15.6406C33.4467 15.6008 33.4709 15.548 33.4749 15.4919L34.1249 11.158C34.1249 11.05 34.1249 10.9419 34.0168 10.9419H33.2579C33.2579 10.9419 33.1499 10.9419 33.1499 11.05Z" fill="#179BD7"/>
<path id="Vector_5" d="M5.52539 16.467L5.63345 15.6H3.90039L4.87539 9.53308H7.15039C7.90845 9.53308 8.45039 9.64196 8.77539 9.96696C8.88345 10.075 8.99233 10.292 8.99233 10.4V11.267L9.10039 11.375C9.20845 11.4831 9.31733 11.4831 9.31733 11.592C9.64233 11.7 9.75039 11.917 9.75039 12.025V12.675C9.64233 13 9.64233 13.217 9.42539 13.4331C9.31733 13.65 9.20845 13.7581 8.99233 13.975C8.77539 14.0831 8.66733 14.192 8.34233 14.3C8.12539 14.4081 7.90845 14.4081 7.58345 14.4081H7.47539C7.36733 14.4081 7.25845 14.4081 7.15039 14.517C7.04233 14.625 6.93345 14.7331 6.93345 14.842V14.95L6.71733 16.3581C6.60845 16.467 5.52539 16.467 5.52539 16.467Z" fill="#253B80"/>
<path id="Vector_6" d="M9.42422 11.1581V11.267C9.09922 12.7831 8.12422 13.325 6.71616 13.325H5.95728C5.74116 13.325 5.63228 13.4331 5.63228 13.65L5.30728 15.817L5.19922 16.467C5.19922 16.575 5.30728 16.6831 5.41616 16.6831H6.60728C6.71616 16.6831 6.82422 16.575 6.93228 16.467V16.3581L7.14922 14.95V14.842C7.14922 14.7331 7.25728 14.625 7.47422 14.625H7.58228C8.77422 14.625 9.64116 14.192 9.96616 12.7831C10.0742 12.242 9.96616 11.7 9.74922 11.375C9.64116 11.267 9.53228 11.267 9.42422 11.1581Z" fill="#179BD7"/>
<path id="Vector_7" d="M9.10025 11.05H6.28331C6.17525 11.05 6.17525 11.1581 6.17525 11.267L5.74219 13.7581V13.867C5.74219 13.7581 5.95831 13.542 6.06719 13.542H6.71719C8.01719 13.542 9.10025 13 9.42525 11.4831V11.375C9.31719 11.1581 9.20831 11.05 9.10025 11.05Z" fill="#222D65"/>
<path id="Vector_8" d="M6.06747 11.158C6.06747 11.05 6.17553 10.9419 6.17553 10.9419H9.10053C9.20859 10.9419 9.31747 11.05 9.31747 11.05C9.42553 10.508 9.31747 10.075 8.99247 9.74996C8.77553 9.42496 8.12553 9.31689 7.25859 9.31689H4.98359C4.76747 9.31689 4.65859 9.42496 4.65859 9.64189L3.68359 15.708C3.68359 15.8169 3.79247 15.925 3.90053 15.925H5.30859L5.63359 13.65L6.06747 11.158Z" fill="#253B80"/>
</g>
</g>
<defs>
<clipPath id="clip0_1070_20809">
<rect width="39" height="26" fill="white"/>
</clipPath>
</defs>
</svg>
