<svg width="24" height="24" viewBox="0 0 24 24" fill="none" xmlns="http://www.w3.org/2000/svg">
<path d="M17.571 18H20.4C20.5591 18 20.7117 17.9368 20.8243 17.8243C20.9368 17.7117 21 17.5591 21 17.4V11C21 9.93913 20.5786 8.92172 19.8284 8.17157C19.0783 7.42143 18.0609 7 17 7H7C5.93913 7 4.92172 7.42143 4.17157 8.17157C3.42143 8.92172 3 9.93913 3 11V17.4C3 17.5591 3.06321 17.7117 3.17574 17.8243C3.28826 17.9368 3.44087 18 3.6 18H6.429M8 7V3.6C8 3.44087 8.06321 3.28826 8.17574 3.17574C8.28826 3.06321 8.44087 3 8.6 3H15.4C15.5591 3 15.7117 3.06321 15.8243 3.17574C15.9368 3.28826 16 3.44087 16 3.6V7" stroke="#191919" stroke-width="1.25"/>
<path d="M6.09785 20.315L6.42785 18L6.92585 14.515C6.94631 14.372 7.01764 14.2413 7.12675 14.1467C7.23586 14.0521 7.37544 14 7.51985 14H16.4798C16.6243 14 16.7638 14.0521 16.8729 14.1467C16.9821 14.2413 17.0534 14.372 17.0738 14.515L17.5698 18L17.9008 20.315C17.913 20.4001 17.9068 20.4868 17.8825 20.5693C17.8582 20.6518 17.8165 20.7281 17.7602 20.7931C17.7039 20.858 17.6342 20.9101 17.556 20.9458C17.4778 20.9815 17.3928 21 17.3068 21H6.69185C6.60587 21 6.52089 20.9815 6.44267 20.9458C6.36445 20.9101 6.29482 20.858 6.23849 20.7931C6.18216 20.7281 6.14045 20.6518 6.11619 20.5693C6.09192 20.4868 6.08567 20.4001 6.09785 20.315Z" stroke="#191919" stroke-width="1.25"/>
<path d="M17 10.009L17.01 9.99805" stroke="#191919" stroke-width="1.25" stroke-linecap="round" stroke-linejoin="round"/>
</svg>
