<svg width="154" height="130" viewBox="0 0 154 130" fill="none" xmlns="http://www.w3.org/2000/svg">
<path d="M82.666 81.4287C82.7447 82.1538 82.8419 82.877 82.9566 83.5963" stroke="#4C4B4A" stroke-width="1.65242" stroke-linecap="round" stroke-linejoin="round"/>
<path d="M78.1268 91.7267C80.4052 100.355 85.2867 108.3 92.0344 114.149C100.432 121.429 111.771 129.037 122.877 128.653C132.221 128.33 140.643 124.744 141.674 114.149C143.177 98.6941 138.848 102.835 114.842 88.0314C101.841 80.0153 96.6118 61.5217 103.489 47.8844C110.366 34.247 128.346 27.4585 142.52 33.1457C148.666 35.6117 154.521 41.6577 152.867 48.07C151.287 54.2015 143.899 56.7919 137.569 56.825C127.072 56.8794 117.57 51.441 109.311 44.9625C80.1244 22.0716 72.845 53.7184 48.9043 41.749" stroke="#B0AFAD" stroke-width="1.04426" stroke-linecap="round" stroke-linejoin="round" stroke-dasharray="3.31 5.81"/>
<path d="M37.9044 14.3999C37.2939 14.0481 36.6718 13.667 36.0391 13.2578" stroke="#4C4B4A" stroke-width="1.65242" stroke-linecap="round" stroke-linejoin="round"/>
<path d="M44.6831 42.0865L18.9727 19.8818L48.3013 26.8691L45.6882 42.0348C45.6399 42.3817 44.9473 42.3151 44.6819 42.0877L44.6831 42.0865Z" fill="#7B9791"/>
<path d="M60.2857 12.0062L2.42318 0.0280266C2.18656 -0.0213656 1.95912 -0.00298736 1.75351 0.0636347C1.62946 0.126811 1.50655 0.189985 1.38364 0.255458C0.936816 0.58742 0.708233 1.19506 0.943708 1.78892L9.38634 17.6783L25.5698 47.8592C26.0545 49.0825 27.7132 49.2606 28.446 48.1682L41.1594 34.2672L45.1751 29.5473L48.3006 26.871L51.0275 24.2934L61.076 14.7952C62.0363 13.8877 61.5779 12.275 60.2846 12.0074L60.2857 12.0062Z" fill="#BDCBC8"/>
<path d="M12.8346 7.98762L51.0516 24.2147L45.7069 42.035C45.6346 42.3083 45.2647 42.3531 45.1291 42.1039L41.1984 34.301L12.5337 8.51141C12.2672 8.29202 12.5107 7.86816 12.8346 7.98762Z" fill="#91A9A3"/>
<path d="M130.373 59.624H30.7871V116.252H130.373V59.624Z" fill="#E3E1DE"/>
<path d="M130.372 59.6211L129.224 61.9753C128.052 64.3713 126.384 66.4855 124.332 68.1758C124.186 68.2963 124.037 68.4149 123.887 68.5306C123.736 68.6472 123.583 68.7619 123.43 68.8737L118.682 72.3195L114.716 75.1976L82.9416 98.2586C82.786 98.3704 82.6266 98.4725 82.4633 98.5638C80.8653 99.4523 78.8727 99.3414 77.3748 98.2343L37.6359 68.8562C37.1849 68.5228 36.7514 68.17 36.3334 67.7977C36.3334 67.7977 36.3331 67.7977 36.3325 67.7977C35.4985 67.056 34.7335 66.2405 34.0463 65.3628C33.2444 64.3383 32.5494 63.2312 31.9749 62.054L30.7871 59.6221L130.373 59.6211H130.372Z" fill="#E3E1DE"/>
<path d="M130.372 59.6221L129.306 62.1678C127.915 65.0401 126.565 67.5216 123.998 69.3995L82.2631 101.136C80.5339 102.4 78.0708 102.232 76.3542 100.952L33.916 69.3014C31.8087 67.6966 30.7871 64.9798 30.7871 64.9798V59.6221L31.9749 62.055C33.2891 64.7446 35.2302 67.0764 37.6379 68.8572L77.3748 98.2353C79.0272 99.4552 81.2794 99.4649 82.9415 98.2596L123.429 68.8737C125.896 67.0832 127.885 64.7144 129.223 61.9753L130.372 59.6211V59.6221Z" fill="#979694"/>
<path d="M130.462 59.314V78.5284C126.25 77.8718 121.735 75.1302 119.008 72.1296C118.92 72.0342 118.833 71.9371 118.749 71.839C116.001 68.6855 113.754 63.805 113.754 59.3158H115.123L130.462 59.3149V59.314Z" fill="#B0AFAD"/>
<path d="M130.88 74.3517C138.493 74.3517 144.664 68.1803 144.664 60.5674C144.664 52.9546 138.493 46.7832 130.88 46.7832C123.267 46.7832 117.096 52.9546 117.096 60.5674C117.096 68.1803 123.267 74.3517 130.88 74.3517Z" fill="#AC5B82"/>
<path d="M131.364 55.9727C131.624 55.9727 131.889 55.9873 132.159 56.0161V56.0307L132.173 56.0161V64.3193C132.558 64.4739 132.824 64.6326 132.968 64.7968L132.824 65.9976H129.065L128.921 64.7968C129.094 64.585 129.484 64.4016 130.092 64.247V57.9112C129.552 57.8531 129.118 57.752 128.791 57.6075V56.5083C129.601 56.1515 130.458 55.9731 131.364 55.9731L131.364 55.9727Z" fill="#FCFAF7"/>
</svg>
