<svg width="39" height="26" viewBox="0 0 39 26" fill="none" xmlns="http://www.w3.org/2000/svg">
<g id="visa-729c05c240c4bdb47b03ac81d9945bfe 1" clip-path="url(#clip0_1070_20791)">
<g id="319">
<g id="New-Icons">
<g id="Card-Brands">
<g id="Color">
<g id="Visa">
<path id="Container" d="M35.3398 0.408203H3.65234C1.85742 0.408203 0.402344 1.86328 0.402344 3.6582V22.3457C0.402344 24.1406 1.85742 25.5957 3.65234 25.5957H35.3398C37.1348 25.5957 38.5898 24.1406 38.5898 22.3457V3.6582C38.5898 1.86328 37.1348 0.408203 35.3398 0.408203Z" fill="white" stroke="black" stroke-opacity="0.2" stroke-width="0.8125"/>
<path id="Shape" d="M4.52616 9.61291C3.67605 9.14665 2.70584 8.77165 1.62109 8.51142L1.66659 8.30876H6.11418C6.71703 8.32989 7.2062 8.51128 7.36538 9.15186L8.33196 13.7602L8.62807 15.1481L11.3353 8.30876H14.2584L9.91328 18.3279H6.99004L4.52616 9.61291ZM16.4086 18.3386H13.6442L15.3732 8.30876H18.1374L16.4086 18.3386ZM26.4296 8.55396L26.0537 10.7198L25.8036 10.6133C25.3034 10.4105 24.6431 10.2078 23.7445 10.2292C22.653 10.2292 22.1636 10.6665 22.1522 11.0933C22.1522 11.5629 22.7444 11.8723 23.7112 12.3312C25.3039 13.0461 26.0426 13.921 26.0316 15.0628C26.0092 17.1435 24.1209 18.488 21.2203 18.488C19.9801 18.4773 18.7856 18.2314 18.1373 17.9543L18.5241 15.7028L18.8881 15.863C19.7868 16.2369 20.3782 16.3965 21.4818 16.3965C22.2777 16.3965 23.131 16.0868 23.1419 15.4149C23.1419 14.9774 22.7784 14.657 21.7089 14.1662C20.6625 13.6859 19.2635 12.8857 19.2861 11.4452C19.2979 9.49264 21.2203 8.12695 23.9502 8.12695C25.0195 8.12695 25.8844 8.35102 26.4296 8.55396ZM30.1037 14.7854H32.4014C32.2877 14.2839 31.7642 11.8831 31.7642 11.8831L31.5711 11.0189C31.4346 11.3923 31.1959 12.0005 31.2074 11.9791C31.2074 11.9791 30.3313 14.2092 30.1037 14.7854ZM33.5159 8.30876L35.7461 18.3384H33.1866C33.1866 18.3384 32.9361 17.186 32.8567 16.8339H29.3075C29.2049 17.1005 28.7273 18.3384 28.7273 18.3384H25.8268L29.9329 9.14094C30.2174 8.49 30.7183 8.30876 31.3777 8.30876H33.5159Z" fill="#1434CB"/>
</g>
</g>
</g>
</g>
</g>
</g>
<defs>
<clipPath id="clip0_1070_20791">
<rect width="39" height="26" fill="white"/>
</clipPath>
</defs>
</svg>
