<svg width="16" height="16" viewBox="0 0 16 16" fill="none" xmlns="http://www.w3.org/2000/svg">
<path d="M5.75 1.25H1.7C1.58065 1.25 1.46619 1.29741 1.3818 1.3818C1.29741 1.46619 1.25 1.58065 1.25 1.7V14.3C1.25 14.4193 1.29741 14.5338 1.3818 14.6182C1.46619 14.7026 1.58065 14.75 1.7 14.75H5.75M5.75 1.25V14.75M5.75 1.25H10.25M5.75 14.75H10.25M10.25 1.25H14.3C14.4193 1.25 14.5338 1.29741 14.6182 1.3818C14.7026 1.46619 14.75 1.58065 14.75 1.7V14.3C14.75 14.4193 14.7026 14.5338 14.6182 14.6182C14.5338 14.7026 14.4193 14.75 14.3 14.75H10.25M10.25 1.25V14.75" stroke="#191919" stroke-width="1.125"/>
</svg>
