<svg width="18" height="18" viewBox="0 0 18 18" fill="none" xmlns="http://www.w3.org/2000/svg">
<path d="M6.75 2.25H2.7C2.58065 2.25 2.46619 2.29741 2.3818 2.3818C2.29741 2.46619 2.25 2.58065 2.25 2.7V15.3C2.25 15.4193 2.29741 15.5338 2.3818 15.6182C2.46619 15.7026 2.58065 15.75 2.7 15.75H6.75M6.75 2.25V15.75M6.75 2.25H11.25M6.75 15.75H11.25M11.25 2.25H15.3C15.4193 2.25 15.5338 2.29741 15.6182 2.3818C15.7026 2.46619 15.75 2.58065 15.75 2.7V15.3C15.75 15.4193 15.7026 15.5338 15.6182 15.6182C15.5338 15.7026 15.4193 15.75 15.3 15.75H11.25M11.25 2.25V15.75" stroke="#FCFAF7" stroke-width="1.125"/>
</svg>
