<svg width="20" height="20" viewBox="0 0 20 20" fill="none" xmlns="http://www.w3.org/2000/svg">
<g id="wallet 1">
<path id="Vector" d="M15.8333 16.6668H4.16667C3.72464 16.6668 3.30072 16.4912 2.98816 16.1787C2.67559 15.8661 2.5 15.4422 2.5 15.0002V7.50016C2.5 7.05814 2.67559 6.63421 2.98816 6.32165C3.30072 6.00909 3.72464 5.8335 4.16667 5.8335H15.8333C16.2754 5.8335 16.6993 6.00909 17.0118 6.32165C17.3244 6.63421 17.5 7.05814 17.5 7.50016V15.0002C17.5 15.4422 17.3244 15.8661 17.0118 16.1787C16.6993 16.4912 16.2754 16.6668 15.8333 16.6668Z" stroke="#33788D" stroke-width="1.25"/>
<path id="Vector_2" d="M13.7507 11.6668C13.6401 11.6668 13.5342 11.6229 13.456 11.5448C13.3779 11.4667 13.334 11.3607 13.334 11.2502C13.334 11.1397 13.3779 11.0337 13.456 10.9555C13.5342 10.8774 13.6401 10.8335 13.7507 10.8335C13.8612 10.8335 13.9671 10.8774 14.0453 10.9555C14.1234 11.0337 14.1673 11.1397 14.1673 11.2502C14.1673 11.3607 14.1234 11.4667 14.0453 11.5448C13.9671 11.6229 13.8612 11.6668 13.7507 11.6668Z" fill="#33788D" stroke="#33788D" stroke-width="1.25" stroke-linecap="round" stroke-linejoin="round"/>
<path id="Vector_3" d="M15 5.8333V4.66913C14.9999 4.41372 14.9412 4.16174 14.8282 3.93265C14.7153 3.70356 14.5512 3.50349 14.3487 3.34789C14.1461 3.1923 13.9105 3.08533 13.66 3.03527C13.4096 2.9852 13.151 2.99336 12.9042 3.05913L3.7375 5.5033C3.38254 5.59789 3.06878 5.8071 2.84499 6.0984C2.6212 6.38971 2.49992 6.74679 2.5 7.11413V7.49997" stroke="#33788D" stroke-width="1.25"/>
</g>
</svg>
