<svg width="18" height="18" viewBox="0 0 18 18" fill="none" xmlns="http://www.w3.org/2000/svg">
<g clip-path="url(#clip0_1164_2513)">
<path d="M17.2327 0.5H4.95334C4.52957 0.5 4.18604 0.848782 4.18604 1.27903V4.75L11.3023 6.875L18 4.75V1.27903C18 0.848782 17.6565 0.5 17.2327 0.5Z" fill="#41A5EE"/>
<path d="M18 4.75H4.18604V9L11.3023 10.275L18 9V4.75Z" fill="#2B7CD3"/>
<path d="M4.18604 9V13.25L10.8837 14.1L18 13.25V9H4.18604Z" fill="#185ABD"/>
<path d="M4.95334 17.5H17.2327C17.6565 17.5 18 17.1512 18 16.721V13.25H4.18604V16.721C4.18604 17.1512 4.52957 17.5 4.95334 17.5Z" fill="#103F91"/>
<path opacity="0.1" d="M9.2792 3.8999H4.18604V14.5249H9.2792C9.70239 14.5235 10.0451 14.1755 10.0465 13.7459V4.67893C10.0451 4.24927 9.70239 3.9013 9.2792 3.8999Z" fill="black"/>
<path opacity="0.2" d="M8.86059 4.3252H4.18604V14.9502H8.86059C9.28379 14.9488 9.62652 14.6008 9.6279 14.1712V5.10422C9.62652 4.67456 9.28379 4.32659 8.86059 4.3252Z" fill="black"/>
<path opacity="0.2" d="M8.86059 4.3252H4.18604V14.1002H8.86059C9.28379 14.0988 9.62652 13.7508 9.6279 13.3212V5.10422C9.62652 4.67456 9.28379 4.32659 8.86059 4.3252Z" fill="black"/>
<path opacity="0.2" d="M8.44199 4.3252H4.18604V14.1002H8.44199C8.86518 14.0988 9.20791 13.7508 9.20929 13.3212V5.10422C9.20791 4.67456 8.86518 4.32659 8.44199 4.3252Z" fill="black"/>
<path d="M0.767305 4.3252H8.442C8.86577 4.3252 9.2093 4.67398 9.2093 5.10422V12.8962C9.2093 13.3264 8.86577 13.6752 8.442 13.6752H0.767305C0.343533 13.6752 0 13.3264 0 12.8962V5.10422C0 4.67398 0.343533 4.3252 0.767305 4.3252Z" fill="url(#paint0_linear_1164_2513)"/>
<path d="M3.14876 10.2998C3.16383 10.4201 3.17388 10.5246 3.17848 10.6143H3.19606C3.20275 10.5293 3.2167 10.4269 3.23792 10.307C3.25913 10.1872 3.27824 10.0859 3.29527 10.0032L4.10234 6.46801H5.14592L5.98313 9.95004C6.03177 10.1665 6.06659 10.386 6.08736 10.6071H6.10118C6.11679 10.3929 6.14587 10.18 6.18825 9.96958L6.85592 6.46631H7.80574L6.6328 11.5323H5.52309L4.72774 8.17735C4.70472 8.08088 4.67835 7.95465 4.64946 7.79953C4.62057 7.6444 4.60258 7.53093 4.59546 7.45953H4.58164C4.57244 7.54197 4.55443 7.66438 4.52764 7.82673C4.50085 7.98908 4.47936 8.10921 4.46317 8.18713L3.71554 11.5315H2.58698L1.40778 6.468H2.37475L3.10187 10.0104C3.1182 10.0831 3.13369 10.18 3.14876 10.2998Z" fill="white"/>
</g>
<defs>
<linearGradient id="paint0_linear_1164_2513" x1="1.59984" y1="3.71648" x2="7.74717" y2="14.2032" gradientUnits="userSpaceOnUse">
<stop stop-color="#2368C4"/>
<stop offset="0.5" stop-color="#1A5DBE"/>
<stop offset="1" stop-color="#1146AC"/>
</linearGradient>
<clipPath id="clip0_1164_2513">
<rect width="18" height="17" fill="white" transform="translate(0 0.5)"/>
</clipPath>
</defs>
</svg>
