<svg width="44" height="45" viewBox="0 0 44 45" fill="none" xmlns="http://www.w3.org/2000/svg">
<rect y="0.5" width="44.0002" height="44.0002" rx="10" fill="#F3E8ED"/>
<path d="M12.9976 22.4579V22.4413C13.0013 21.9766 13.1738 21.6395 13.2521 21.4905C13.6167 20.7974 14.2291 20.4153 14.8566 20.1454C15.1659 20.0126 15.4544 19.8877 15.7244 19.77C15.5453 19.4597 15.196 18.7553 15.2312 17.821C15.2832 16.4414 16.1359 15.5517 16.4347 15.2727C17.8594 13.9418 19.7606 14.2758 19.9743 14.3171C20.0718 14.6977 20.3693 16.0544 19.6469 17.432C18.4903 19.6373 15.8365 19.7666 15.7249 19.7702C16.0452 20.1599 16.6409 20.5659 18.066 21.2075C18.8716 21.5701 20.6366 22.0298 21.9977 22.4581C23.3587 22.8863 25.1237 23.346 25.9293 23.7086C27.3544 24.3502 27.9501 24.7562 28.2704 25.1459C28.1587 25.1495 25.505 25.2788 24.3484 27.4841C23.626 28.8617 23.9235 30.2184 24.021 30.599C24.2347 30.6403 26.1358 30.9743 27.5606 29.6434C27.8593 29.3644 28.7121 28.4747 28.764 27.0951C28.7992 26.1608 28.45 25.4564 28.2708 25.1461C28.5409 25.0284 28.8294 24.9035 29.1387 24.7707C29.7662 24.5008 30.3786 24.1187 30.7432 23.4256C30.8215 23.2766 30.994 22.9395 30.9977 22.4748V22.4582M12.9977 22.4582V22.4748C13.0015 22.9395 13.1739 23.2766 13.2523 23.4256C13.6168 24.1187 14.2293 24.5008 14.8568 24.7707C15.166 24.9035 15.4545 25.0284 15.7246 25.1461C15.5455 25.4562 15.1962 26.1606 15.2314 27.0951C15.2831 28.475 16.1361 29.3644 16.4349 29.6434C17.8594 30.9743 19.7608 30.6403 19.9745 30.599C20.0719 30.2184 20.3694 28.8617 19.647 27.4841C18.4905 25.2788 15.8365 25.1495 15.725 25.1459C16.0454 24.7562 16.641 24.3502 18.0662 23.7086C18.8718 23.346 20.6368 22.8863 21.9978 22.458M30.9974 22.4581V22.4415C30.9936 21.9768 30.8212 21.6397 30.7428 21.4907C30.3782 20.7976 29.7658 20.4155 29.1383 20.1456C28.8291 20.0128 28.5406 19.8879 28.2705 19.7702C28.4496 19.4601 28.7989 18.7557 28.7637 17.8212C28.7119 16.4414 27.859 15.5519 27.5602 15.2729C26.1357 13.942 24.2343 14.276 24.0206 14.3173C23.9232 14.698 23.6257 16.0546 24.3481 17.4322C25.5046 19.6375 28.1586 19.7668 28.2701 19.7704C27.9497 20.1601 27.354 20.5661 25.9289 21.2077C25.1233 21.5704 23.3583 22.03 21.9973 22.4583" stroke="url(#paint0_linear_1868_1169)" stroke-width="1.35036" stroke-miterlimit="10" stroke-linejoin="round"/>
<defs>
<linearGradient id="paint0_linear_1868_1169" x1="12.9976" y1="14.25" x2="32.6225" y2="28.5722" gradientUnits="userSpaceOnUse">
<stop stop-color="#CFA1B7"/>
<stop offset="1" stop-color="#88154C"/>
</linearGradient>
</defs>
</svg>
