<svg width="20" height="19" viewBox="0 0 20 19" fill="none" xmlns="http://www.w3.org/2000/svg">
<g id="Group 57">
<g id="Group 53">
<g id="global">
<path id="Vector" d="M0.997559 9.45788V9.44132C1.00133 8.97661 1.17376 8.6395 1.25212 8.49053C1.61669 7.79745 2.22911 7.41528 2.85662 7.14542C3.16587 7.01259 3.45438 6.88772 3.72445 6.76997C3.54531 6.45967 3.19604 5.75527 3.23124 4.82103C3.2832 3.44136 4.13594 2.55174 4.43472 2.27266C5.85945 0.941806 7.76062 1.27578 7.97433 1.31705C8.07176 1.69775 8.36927 3.05438 7.64685 4.43196C6.49031 6.63734 3.83654 6.76662 3.72487 6.77018C4.04522 7.15988 4.64088 7.56593 6.06603 8.20747C6.87163 8.57015 8.63662 9.02983 9.99766 9.45808C11.3587 9.88634 13.1237 10.346 13.9293 10.7086C15.3544 11.3502 15.9501 11.7562 16.2704 12.1459C16.1587 12.1495 13.505 12.2788 12.3484 14.4841C11.626 15.8617 11.9235 17.2184 12.021 17.599C12.2347 17.6403 14.1358 17.9743 15.5606 16.6434C15.8593 16.3644 16.7121 15.4747 16.764 14.0951C16.7992 13.1608 16.45 12.4564 16.2708 12.1461C16.5409 12.0284 16.8294 11.9035 17.1387 11.7707C17.7662 11.5008 18.3786 11.1187 18.7432 10.4256C18.8215 10.2766 18.994 9.93949 18.9977 9.47478V9.45823M0.997713 9.45823V9.47478C1.00148 9.93949 1.17392 10.2766 1.25228 10.4256C1.61684 11.1187 2.22927 11.5008 2.85677 11.7707C3.16602 11.9035 3.45453 12.0284 3.7246 12.1461C3.54546 12.4562 3.1962 13.1606 3.23139 14.0951C3.28315 15.475 4.1361 16.3644 4.43487 16.6434C5.85939 17.9743 7.76078 17.6403 7.97448 17.599C8.07191 17.2184 8.36943 15.8617 7.64701 14.4841C6.49046 12.2788 3.83649 12.1495 3.72502 12.1459C4.04538 11.7562 4.64104 11.3502 6.06619 10.7086C6.87179 10.346 8.63677 9.88627 9.99781 9.45802M18.9974 9.45808V9.44153C18.9936 8.97682 18.8212 8.6397 18.7428 8.49074C18.3782 7.79765 17.7658 7.41549 17.1383 7.14563C16.8291 7.0128 16.5406 6.88792 16.2705 6.77017C16.4496 6.46009 16.7989 5.75569 16.7637 4.82124C16.7119 3.44135 15.859 2.55195 15.5602 2.27287C14.1357 0.942011 12.2343 1.27598 12.0206 1.31726C11.9232 1.69795 11.6257 3.05458 12.3481 4.43216C13.5046 6.63755 16.1586 6.76682 16.2701 6.77038C15.9497 7.16009 15.354 7.56613 13.9289 8.20768C13.1233 8.57035 11.3583 9.03004 9.99728 9.45829" stroke="url(#paint0_linear_1914_638)" stroke-width="1.35036" stroke-miterlimit="10" stroke-linejoin="round"/>
</g>
</g>
</g>
<defs>
<linearGradient id="paint0_linear_1914_638" x1="0.997559" y1="1.25" x2="20.6225" y2="15.5722" gradientUnits="userSpaceOnUse">
<stop stop-color="#CFA1B7"/>
<stop offset="1" stop-color="#88154C"/>
</linearGradient>
</defs>
</svg>
