<svg width="162" height="37" viewBox="0 0 162 37" fill="none" xmlns="http://www.w3.org/2000/svg">
<path d="M2 18.4844V18.4511C2.00757 17.5179 2.35384 16.841 2.5112 16.5418C3.24329 15.15 4.47311 14.3826 5.73322 13.8407C6.35423 13.5739 6.93359 13.3232 7.47593 13.0867C7.11619 12.4636 6.41482 11.0491 6.4855 9.17302C6.58985 6.40246 8.30226 4.61601 8.90223 4.05559C11.7633 1.38306 15.5811 2.05372 16.0102 2.1366C16.2059 2.90108 16.8033 5.62536 15.3526 8.39171C13.0301 12.8204 7.70102 13.08 7.47677 13.0871C8.12008 13.8697 9.31624 14.6851 12.1781 15.9734C13.7959 16.7017 17.3402 17.6248 20.0733 18.4848C22.8064 19.3448 26.3507 20.2677 27.9684 20.996C30.8303 22.2843 32.0265 23.0997 32.6698 23.8823C32.4455 23.8894 27.1164 24.149 24.7939 28.5777C23.3432 31.3441 23.9407 34.0683 24.1363 34.8328C24.5655 34.9157 28.3833 35.5864 31.2443 32.9138C31.8443 32.3534 33.5567 30.567 33.661 27.7964C33.7317 25.9203 33.0303 24.5058 32.6706 23.8827C33.2129 23.6463 33.7923 23.3955 34.4133 23.1287C35.6734 22.5868 36.9032 21.8194 37.6353 20.4276C37.7927 20.1285 38.139 19.4515 38.1465 18.5183V18.4851M2.00031 18.4851V18.5183C2.00788 19.4515 2.35415 20.1285 2.51151 20.4276C3.24359 21.8194 4.47342 22.5868 5.73353 23.1287C6.35454 23.3955 6.9339 23.6463 7.47623 23.8827C7.1165 24.5054 6.41513 25.9199 6.48581 27.7964C6.58974 30.5674 8.30257 32.3534 8.90254 32.9138C11.7631 35.5864 15.5814 34.9157 16.0105 34.8328C16.2062 34.0683 16.8036 31.3441 15.3529 28.5777C13.0304 24.149 7.70091 23.8894 7.47708 23.8823C8.12039 23.0997 9.31655 22.2843 12.1784 20.996C13.7962 20.2677 17.3405 19.3446 20.0736 18.4846M38.1458 18.4848V18.4515C38.1382 17.5183 37.792 16.8414 37.6346 16.5422C36.9025 15.1504 35.6727 14.383 34.4126 13.8411C33.7916 13.5743 33.2122 13.3236 32.6699 13.0871C33.0296 12.4644 33.731 11.0499 33.6603 9.17343C33.5564 6.40245 31.8436 4.61642 31.2436 4.056C28.383 1.38347 24.5648 2.05413 24.1356 2.13701C23.94 2.9015 23.3425 5.62577 24.7932 8.39212C27.1157 12.8208 32.4452 13.0804 32.669 13.0876C32.0257 13.8701 30.8296 14.6855 27.9677 15.9738C26.35 16.7021 22.8057 17.6252 20.0725 18.4852" stroke="url(#paint0_linear_261_23311)" stroke-width="2.25973" stroke-miterlimit="10" stroke-linejoin="round"/>
<path d="M72.6601 12.1128V14.2232C72.6601 14.7215 72.5135 15.2198 71.9273 15.2198C71.4583 15.2198 71.2238 14.4577 71.0479 14.106C69.641 11.292 67.8236 9.91438 64.9804 9.91438C59.3232 9.91438 56.6265 14.8974 56.6265 19.5287C56.6265 25.9187 60.4957 29.0844 64.8045 29.0844C67.384 29.0844 69.172 28.0585 70.9893 26.2411C71.2824 25.948 71.6049 25.4497 72.1032 25.4497C72.4842 25.4497 72.748 25.7722 72.748 26.1532C72.748 27.1205 70.5496 28.7913 69.8168 29.231C68.234 30.2276 66.7684 30.7552 64.3355 30.7552C58.4732 30.7552 53.6367 26.417 53.6367 20.4081C53.6367 14.6629 57.0369 8.41947 65.0976 8.41947C67.5891 8.41947 68.9375 8.88846 70.6962 9.79713C72.3377 10.6472 72.6601 11.2627 72.6601 12.1128Z" fill="#FCFAF7"/>
<path d="M77.282 24.766C77.7604 27.3813 80.0248 28.976 82.5763 28.976C86.1165 28.976 87.2009 26.2969 88.062 26.2969C88.381 26.2969 88.668 26.552 88.668 26.871C88.668 27.764 87.3285 28.8803 86.6587 29.3268C85.2873 30.2517 83.7245 30.7939 82.066 30.7939C77.8879 30.7939 74.5391 27.7959 74.5391 23.5221C74.5391 18.8337 78.2707 15.0065 82.9909 15.0065C86.2441 15.0065 88.2215 17.0477 88.2215 19.057C88.2215 21.3533 86.3079 22.6929 84.3943 23.4264C82.3531 24.2238 80.0567 24.4789 77.282 24.766ZM77.0906 23.3945C79.7697 23.1394 85.67 22.5653 85.67 18.9932C85.67 17.3028 84.3624 16.5693 82.8315 16.5693C78.9085 16.5693 77.0587 19.8224 77.0906 23.3945ZM79.6421 11.4663L82.7677 9.6483C83.7245 9.10611 84.3624 8.78717 84.8408 8.78717C85.4786 8.78717 85.957 9.87156 85.957 10.5094C85.957 10.8922 85.2235 11.3706 84.6494 11.5619L81.0135 12.8377C80.28 13.0609 79.8335 13.2523 79.5145 13.2523C79.1318 13.2523 78.781 12.6144 78.781 12.2317C78.781 11.9766 79.2913 11.6576 79.6421 11.4663Z" fill="#FCFAF7"/>
<path d="M92.5271 26.3926V20.2371C92.5271 18.7699 91.8574 18.0364 91.1557 17.7174C90.8687 17.5899 90.4222 17.4623 90.4222 17.0477C90.4222 16.5693 90.9006 16.2184 91.2514 15.9633C91.6022 15.7081 92.5909 15.0065 93.0374 15.0065C94.2813 15.0065 94.6321 18.1002 94.7597 19.0251C95.3976 17.4942 97.2474 15.0065 99.0334 15.0065C100.277 15.0065 100.851 15.7719 100.851 16.952C100.851 17.3985 100.692 18.1321 100.118 18.1321C99.5756 18.1321 98.8102 17.4623 98.1723 17.4623C97.2155 17.4623 96.2906 18.6743 95.8441 19.4397C95.2381 20.4603 94.9192 21.449 94.9192 22.8205V26.3926C94.9192 28.2743 95.0467 28.5932 95.6208 28.8165C96.1949 29.0398 96.4501 29.1673 96.4501 29.5501C96.4501 30.2517 95.9398 30.3155 95.3976 30.3155H91.9849C91.4746 30.3155 90.9006 30.2836 90.9006 29.5501C90.9006 29.1992 91.1557 29.0398 91.8893 28.7208C92.3677 28.5295 92.5271 28.3381 92.5271 26.3926Z" fill="#FCFAF7"/>
<path d="M104.722 24.766C105.2 27.3813 107.465 28.976 110.016 28.976C113.556 28.976 114.641 26.2969 115.502 26.2969C115.821 26.2969 116.108 26.552 116.108 26.871C116.108 27.764 114.768 28.8803 114.098 29.3268C112.727 30.2517 111.164 30.7939 109.506 30.7939C105.328 30.7939 101.979 27.7959 101.979 23.5221C101.979 18.8337 105.71 15.0065 110.431 15.0065C113.684 15.0065 115.661 17.0477 115.661 19.057C115.661 21.3533 113.748 22.6929 111.834 23.4264C109.793 24.2238 107.496 24.4789 104.722 24.766ZM104.53 23.3945C107.209 23.1394 113.11 22.5653 113.11 18.9932C113.11 17.3028 111.802 16.5693 110.271 16.5693C106.348 16.5693 104.498 19.8224 104.53 23.3945ZM107.082 11.4663L110.207 9.6483C111.164 9.10611 111.802 8.78717 112.281 8.78717C112.918 8.78717 113.397 9.87156 113.397 10.5094C113.397 10.8922 112.663 11.3706 112.089 11.5619L108.453 12.8377C107.72 13.0609 107.273 13.2523 106.954 13.2523C106.572 13.2523 106.221 12.6144 106.221 12.2317C106.221 11.9766 106.731 11.6576 107.082 11.4663Z" fill="#FCFAF7"/>
<path d="M121.434 7.51142V17.5261C122.678 16.0271 124.496 15.0065 126.537 15.0065C130.843 15.0065 132.788 18.4829 132.788 22.4058C132.788 27.9554 129.057 30.7939 125.038 30.7939C121.019 30.7939 119.042 28.657 119.042 24.1919V9.71209C119.042 8.65959 118.436 8.53202 117.83 8.30876C117.607 8.24497 117.32 8.1174 117.32 7.83035C117.32 7.44763 117.671 7.32005 117.958 7.16058C118.532 6.84164 120.094 6.17188 120.7 6.17188C121.434 6.17188 121.434 6.87354 121.434 7.51142ZM121.434 19.4397V24.5746C121.434 26.3607 122.487 29.2949 125.516 29.2949C128.897 29.2949 130.237 26.0098 130.237 23.1075C130.237 19.2802 128.164 16.6331 126.027 16.6331C124.209 16.6331 122.359 17.9726 121.434 19.4397Z" fill="#FCFAF7"/>
<path d="M136.537 26.3926V20.2371C136.537 18.7699 135.867 18.0364 135.165 17.7174C134.878 17.5899 134.432 17.4623 134.432 17.0477C134.432 16.5693 134.91 16.2184 135.261 15.9633C135.612 15.7081 136.6 15.0065 137.047 15.0065C138.291 15.0065 138.642 18.1002 138.769 19.0251C139.407 17.4942 141.257 15.0065 143.043 15.0065C144.287 15.0065 144.861 15.7719 144.861 16.952C144.861 17.3985 144.701 18.1321 144.127 18.1321C143.585 18.1321 142.82 17.4623 142.182 17.4623C141.225 17.4623 140.3 18.6743 139.854 19.4397C139.248 20.4603 138.929 21.449 138.929 22.8205V26.3926C138.929 28.2743 139.056 28.5932 139.63 28.8165C140.204 29.0398 140.46 29.1673 140.46 29.5501C140.46 30.2517 139.949 30.3155 139.407 30.3155H135.994C135.484 30.3155 134.91 30.2836 134.91 29.5501C134.91 29.1992 135.165 29.0398 135.899 28.7208C136.377 28.5295 136.537 28.3381 136.537 26.3926Z" fill="#FCFAF7"/>
<path d="M154.089 15.0065C158.395 15.0065 161.999 18.451 161.999 22.7886C161.999 27.3494 158.459 30.7939 153.93 30.7939C149.592 30.7939 146.116 27.2537 146.116 22.9161C146.116 18.6105 149.784 15.0065 154.089 15.0065ZM154.026 16.5693C150.326 16.5693 148.667 19.7586 148.667 23.0437C148.667 26.2969 150.422 29.2311 153.962 29.2311C156.673 29.2311 159.448 26.9348 159.448 22.7567C159.448 19.4716 157.566 16.5693 154.026 16.5693Z" fill="#FCFAF7"/>
<defs>
<linearGradient id="paint0_linear_261_23311" x1="2" y1="2.00195" x2="41.4092" y2="30.7626" gradientUnits="userSpaceOnUse">
<stop stop-color="#CAC8C6"/>
<stop offset="1" stop-color="#FCFAF7"/>
</linearGradient>
</defs>
</svg>
