<svg width="136" height="28" viewBox="0 0 136 28" fill="none" xmlns="http://www.w3.org/2000/svg">
<path d="M29.555 14.0001C27.5052 13.3551 24.8469 12.6628 23.6336 12.1166C21.4872 11.1503 20.5901 10.5388 20.1076 9.95186C20.2758 9.94649 24.2726 9.75179 26.0145 6.43027C27.1025 4.3555 26.6544 2.31229 26.5077 1.73893C26.1858 1.67676 23.3225 1.17377 21.1767 3.17817C20.7267 3.59849 19.4424 4.93833 19.3641 7.01625C19.3111 8.42331 19.8372 9.4842 20.107 9.95154C19.7002 10.1289 19.2657 10.317 18.7999 10.517C17.8548 10.9234 16.9325 11.499 16.3834 12.5429C16.2654 12.7672 16.0057 13.275 16 13.9749V13.9998" stroke="#191919" stroke-width="1.57094" stroke-linecap="round" stroke-linejoin="round"/>
<path d="M16 14.0003V14.0252C16.0057 14.7251 16.2654 15.2329 16.3834 15.4572C16.9325 16.5011 17.8548 17.0767 18.7999 17.4831C19.2657 17.6831 19.7002 17.8712 20.107 18.0486C19.8372 18.5156 19.3111 19.5765 19.3641 20.9838C19.4421 23.0621 20.7267 24.4016 21.1767 24.8219C23.3222 26.8263 26.1858 26.3233 26.5077 26.2612C26.6544 25.6878 27.1025 23.6446 26.0145 21.5698C24.2726 18.2483 20.2755 18.0536 20.1076 18.0482C20.5901 17.4613 21.4872 16.8498 23.6336 15.8835C24.8469 15.3373 27.5052 14.645 29.555 14" stroke="#191919" stroke-width="1.57094" stroke-linecap="round" stroke-linejoin="round"/>
<path d="M43.1097 14V13.9751C43.104 13.2752 42.8443 12.7675 42.7263 12.5431C42.1772 11.4993 41.2549 10.9237 40.3098 10.5173C39.844 10.3172 39.4095 10.1291 39.0027 9.95178C39.2725 9.48476 39.7986 8.42387 39.7456 7.0165C39.6676 4.93826 38.383 3.59873 37.933 3.17841C35.7875 1.17401 32.9239 1.67701 32.602 1.73917C32.4553 2.31253 32.0072 4.35575 33.0952 6.43051C34.8371 9.75204 38.8342 9.94673 39.0021 9.9521C38.5196 10.539 37.6225 11.1506 35.4761 12.1168C34.2628 12.663 31.6045 13.3554 29.5547 14.0003" stroke="#191919" stroke-width="1.57094" stroke-linecap="round" stroke-linejoin="round"/>
<path d="M29.5547 14C31.6045 14.645 34.2628 15.3373 35.4761 15.8835C37.6225 16.8498 38.5196 17.4613 39.0021 18.0482C38.8339 18.0536 34.8371 18.2483 33.0952 21.5698C32.0072 23.6446 32.4553 25.6878 32.602 26.2612C32.9239 26.3233 35.7872 26.8263 37.933 24.8219C38.383 24.4016 39.6673 23.0618 39.7456 20.9838C39.7986 19.5768 39.2725 18.5159 39.0027 18.0486C39.4095 17.8712 39.844 17.6831 40.3098 17.4831C41.2549 17.0767 42.1772 16.5011 42.7263 15.4572C42.8443 15.2329 43.104 14.7251 43.1097 14.0252V14.0003" stroke="#191919" stroke-width="1.57094" stroke-linecap="round" stroke-linejoin="round"/>
<path d="M29.555 14.0001C27.5052 13.3551 24.8469 12.6628 23.6336 12.1166C21.4872 11.1503 20.5901 10.5388 20.1076 9.95186M29.555 14.0001C27.5052 14.6451 24.8472 15.3373 23.6338 15.8835C21.4874 16.8498 20.5897 17.4616 20.1072 18.0486M29.555 14.0001C31.6049 13.3551 34.2625 12.6631 35.4759 12.1169C37.6223 11.1506 38.52 10.5388 39.0025 9.95185M29.555 14.0001C31.6049 14.6451 34.2631 15.3373 35.4764 15.8835C37.6228 16.8498 38.5199 17.4613 39.0024 18.0482M20.1076 9.95186C20.2758 9.94649 24.2726 9.7518 26.0145 6.43027C27.1025 4.3555 26.6544 2.31229 26.5077 1.73893C26.1858 1.67676 23.3225 1.17377 21.1767 3.17817C20.7267 3.59849 19.4424 4.93833 19.3641 7.01625C19.3111 8.42331 19.8378 9.48452 20.1076 9.95186ZM20.1076 9.95186C19.7008 10.1292 19.2657 10.317 18.7999 10.517C17.8548 10.9234 16.9325 11.499 16.3834 12.5429C16.2654 12.7672 16.0057 13.275 16 13.9749V13.9998L16.0002 14.0252C16.0059 14.7251 16.2656 15.2329 16.3836 15.4572C16.9327 16.5011 17.8551 17.0767 18.8002 17.4831C19.2659 17.6831 19.7004 17.8712 20.1072 18.0486M20.1072 18.0486C19.8374 18.5156 19.3114 19.5765 19.3644 20.9838C19.4423 23.0621 20.7269 24.4016 21.1769 24.8219C23.3224 26.8263 26.1861 26.3233 26.5079 26.2612C26.6547 25.6878 27.1027 23.6446 26.0147 21.5698C24.2728 18.2483 20.2751 18.0539 20.1072 18.0486ZM39.0025 9.95185C39.4093 10.1292 39.8438 10.3173 40.3095 10.5173C41.2546 10.9238 42.177 11.4993 42.7261 12.5432C42.8441 12.7675 43.1038 13.2753 43.1095 13.9752V14.0001L43.11 14.0252C43.1043 14.7251 42.8446 15.2329 42.7266 15.4572C42.1775 16.5011 41.2552 17.0767 40.3101 17.4831C39.8443 17.6831 39.4092 17.8709 39.0024 18.0482M39.0025 9.95185C39.2723 9.48483 39.7983 8.42394 39.7453 7.01656C39.6674 4.93832 38.3827 3.5988 37.9328 3.17848C35.7873 1.17408 32.9236 1.67707 32.6018 1.73924C32.455 2.3126 32.0069 4.35581 33.095 6.43058C34.8369 9.7521 38.8346 9.94648 39.0025 9.95185ZM39.0024 18.0482C38.8342 18.0536 34.8374 18.2483 33.0955 21.5698C32.0075 23.6446 32.4556 25.6878 32.6023 26.2612C32.9242 26.3233 35.7875 26.8263 37.9333 24.8219C38.3833 24.4016 39.6676 23.0618 39.7459 20.9838C39.7989 19.5768 39.2722 18.5156 39.0024 18.0482Z" stroke="url(#paint0_linear_203_1814)" stroke-width="1.57094" stroke-miterlimit="10" stroke-linejoin="round"/>
<path d="M68.9961 9.22254V10.8054C68.9961 11.1791 68.8862 11.5528 68.4465 11.5528C68.0947 11.5528 67.9189 10.9813 67.787 10.7175C66.7317 8.60698 65.3687 7.57373 63.2363 7.57373C58.9934 7.57373 56.9709 11.311 56.9709 14.7845C56.9709 19.577 59.8728 21.9513 63.1044 21.9513C65.039 21.9513 66.38 21.1819 67.743 19.8188C67.9628 19.599 68.2047 19.2253 68.5784 19.2253C68.8642 19.2253 69.062 19.4671 69.062 19.7529C69.062 20.4784 67.4132 21.7315 66.8636 22.0612C65.6765 22.8087 64.5773 23.2044 62.7527 23.2044C58.3559 23.2044 54.7285 19.9507 54.7285 15.444C54.7285 11.1351 57.2787 6.45255 63.3242 6.45255C65.1929 6.45255 66.2041 6.80429 67.5232 7.4858C68.7543 8.12333 68.9961 8.585 68.9961 9.22254Z" fill="#191919"/>
<path d="M72.4625 18.7125C72.8213 20.6739 74.5197 21.87 76.4333 21.87C79.0884 21.87 79.9017 19.8606 80.5476 19.8606C80.7868 19.8606 81.0021 20.052 81.0021 20.2912C81.0021 20.961 79.9974 21.7982 79.4951 22.1331C78.4665 22.8268 77.2944 23.2334 76.0506 23.2334C72.917 23.2334 70.4054 20.9849 70.4054 17.7796C70.4054 14.2633 73.204 11.3928 76.7443 11.3928C79.1841 11.3928 80.6672 12.9237 80.6672 14.4307C80.6672 16.153 79.232 17.1576 77.7967 17.7078C76.2658 18.3058 74.5436 18.4972 72.4625 18.7125ZM72.319 17.6839C74.3283 17.4925 78.7536 17.062 78.7536 14.3829C78.7536 13.1151 77.7728 12.5649 76.6247 12.5649C73.6825 12.5649 72.2951 15.0048 72.319 17.6839ZM74.2326 8.73764L76.5768 7.37418C77.2944 6.96753 77.7728 6.72832 78.1316 6.72832C78.61 6.72832 78.9688 7.54162 78.9688 8.02003C78.9688 8.30707 78.4187 8.66588 77.9881 8.8094L75.2612 9.76622C74.711 9.93366 74.3761 10.0772 74.1369 10.0772C73.8499 10.0772 73.5868 9.59878 73.5868 9.31173C73.5868 9.12037 73.9695 8.88116 74.2326 8.73764Z" fill="#191919"/>
<path d="M83.8964 19.9324V15.3158C83.8964 14.2154 83.3941 13.6653 82.8679 13.426C82.6526 13.3304 82.3177 13.2347 82.3177 12.9237C82.3177 12.5649 82.6765 12.3018 82.9396 12.1104C83.2027 11.9191 83.9443 11.3928 84.2792 11.3928C85.2121 11.3928 85.4752 13.7131 85.5709 14.4068C86.0493 13.2586 87.4366 11.3928 88.7762 11.3928C89.7091 11.3928 90.1396 11.9669 90.1396 12.852C90.1396 13.1868 90.02 13.737 89.5895 13.737C89.1828 13.737 88.6087 13.2347 88.1303 13.2347C87.4127 13.2347 86.719 14.1437 86.3841 14.7178C85.9297 15.4832 85.6905 16.2247 85.6905 17.2533V19.9324C85.6905 21.3437 85.7861 21.5829 86.2167 21.7504C86.6473 21.9178 86.8386 22.0135 86.8386 22.3005C86.8386 22.8268 86.4559 22.8746 86.0493 22.8746H83.4898C83.1071 22.8746 82.6765 22.8507 82.6765 22.3005C82.6765 22.0374 82.8679 21.9178 83.418 21.6786C83.7768 21.5351 83.8964 21.3916 83.8964 19.9324Z" fill="#191919"/>
<path d="M93.0424 18.7125C93.4012 20.6739 95.0996 21.87 97.0132 21.87C99.6683 21.87 100.482 19.8606 101.127 19.8606C101.367 19.8606 101.582 20.052 101.582 20.2912C101.582 20.961 100.577 21.7982 100.075 22.1331C99.0464 22.8268 97.8743 23.2334 96.6305 23.2334C93.4969 23.2334 90.9853 20.9849 90.9853 17.7796C90.9853 14.2633 93.7839 11.3928 97.3242 11.3928C99.764 11.3928 101.247 12.9237 101.247 14.4307C101.247 16.153 99.8119 17.1576 98.3766 17.7078C96.8457 18.3058 95.1235 18.4972 93.0424 18.7125ZM92.8989 17.6839C94.9082 17.4925 99.3335 17.062 99.3335 14.3829C99.3335 13.1151 98.3527 12.5649 97.2045 12.5649C94.2623 12.5649 92.875 15.0048 92.8989 17.6839ZM94.8125 8.73764L97.1567 7.37418C97.8743 6.96753 98.3527 6.72832 98.7115 6.72832C99.1899 6.72832 99.5487 7.54162 99.5487 8.02003C99.5487 8.30707 98.9986 8.66588 98.568 8.8094L95.8411 9.76622C95.2909 9.93366 94.956 10.0772 94.7168 10.0772C94.4298 10.0772 94.1667 9.59878 94.1667 9.31173C94.1667 9.12037 94.5494 8.88116 94.8125 8.73764Z" fill="#191919"/>
<path d="M105.577 5.7715V13.2825C106.51 12.1583 107.873 11.3928 109.404 11.3928C112.633 11.3928 114.092 14.0001 114.092 16.9424C114.092 21.1045 111.294 23.2334 108.28 23.2334C105.266 23.2334 103.783 21.6308 103.783 18.2819V7.42202C103.783 6.63264 103.328 6.53696 102.874 6.36952C102.706 6.32167 102.491 6.22599 102.491 6.01071C102.491 5.72366 102.754 5.62798 102.969 5.50838C103.4 5.26917 104.572 4.76685 105.027 4.76685C105.577 4.76685 105.577 5.2931 105.577 5.7715ZM105.577 14.7178V18.5689C105.577 19.9085 106.366 22.1092 108.638 22.1092C111.174 22.1092 112.179 19.6454 112.179 17.4686C112.179 14.5981 110.624 12.6128 109.021 12.6128C107.658 12.6128 106.27 13.6174 105.577 14.7178Z" fill="#191919"/>
<path d="M116.904 19.9324V15.3158C116.904 14.2154 116.401 13.6653 115.875 13.426C115.66 13.3304 115.325 13.2347 115.325 12.9237C115.325 12.5649 115.684 12.3018 115.947 12.1104C116.21 11.9191 116.952 11.3928 117.286 11.3928C118.219 11.3928 118.482 13.7131 118.578 14.4068C119.057 13.2586 120.444 11.3928 121.783 11.3928C122.716 11.3928 123.147 11.9669 123.147 12.852C123.147 13.1868 123.027 13.737 122.597 13.737C122.19 13.737 121.616 13.2347 121.138 13.2347C120.42 13.2347 119.726 14.1437 119.391 14.7178C118.937 15.4832 118.698 16.2247 118.698 17.2533V19.9324C118.698 21.3437 118.793 21.5829 119.224 21.7504C119.655 21.9178 119.846 22.0135 119.846 22.3005C119.846 22.8268 119.463 22.8746 119.057 22.8746H116.497C116.114 22.8746 115.684 22.8507 115.684 22.3005C115.684 22.0374 115.875 21.9178 116.425 21.6786C116.784 21.5351 116.904 21.3916 116.904 19.9324Z" fill="#191919"/>
<path d="M130.068 11.3928C133.298 11.3928 136.001 13.9762 136.001 17.2294C136.001 20.65 133.345 23.2334 129.949 23.2334C126.696 23.2334 124.088 20.5783 124.088 17.3251C124.088 14.0958 126.839 11.3928 130.068 11.3928ZM130.02 12.5649C127.246 12.5649 126.002 14.957 126.002 17.4208C126.002 19.8606 127.317 22.0613 129.973 22.0613C132.006 22.0613 134.087 20.3391 134.087 17.2055C134.087 14.7417 132.676 12.5649 130.02 12.5649Z" fill="#191919"/>
<defs>
<linearGradient id="paint0_linear_203_1814" x1="20" y1="2.00012" x2="39.5" y2="26.0001" gradientUnits="userSpaceOnUse">
<stop stop-color="#979694"/>
<stop offset="1" stop-color="#191919" stop-opacity="0"/>
</linearGradient>
</defs>
</svg>
