<svg width="44" height="45" viewBox="0 0 44 45" fill="none" xmlns="http://www.w3.org/2000/svg">
<rect y="0.5" width="44.0002" height="44.0002" rx="10" fill="#E6EEF1"/>
<path d="M13 22.4576V22.4411C13.0038 21.9764 13.1762 21.6393 13.2546 21.4903C13.6192 20.7972 14.2316 20.415 14.8591 20.1452C15.1683 20.0123 15.4568 19.8875 15.7269 19.7697C15.5478 19.4594 15.1985 18.755 15.2337 17.8208C15.2857 16.4411 16.1384 15.5515 16.4372 15.2724C17.8619 13.9416 19.7631 14.2755 19.9768 14.3168C20.0742 14.6975 20.3717 16.0541 19.6493 17.4317C18.4928 19.6371 15.839 19.7664 15.7273 19.7699C16.0477 20.1596 16.6434 20.5657 18.0685 21.2072C18.8741 21.5699 20.6391 22.0296 22.0001 22.4578C23.3612 22.8861 25.1261 23.3457 25.9317 23.7084C27.3569 24.3499 27.9525 24.756 28.2729 25.1457C28.1612 25.1492 25.5075 25.2785 24.3509 27.4839C23.6285 28.8615 23.926 30.2181 24.0234 30.5988C24.2371 30.6401 26.1383 30.9741 27.563 29.6432C27.8618 29.3641 28.7146 28.4745 28.7665 27.0948C28.8017 26.1606 28.4525 25.4562 28.2733 25.1459C28.5434 25.0281 28.8319 24.9033 29.1411 24.7704C29.7686 24.5006 30.3811 24.1184 30.7456 23.4253C30.824 23.2764 30.9964 22.9392 31.0002 22.4745V22.458M13.0002 22.458V22.4745C13.004 22.9392 13.1764 23.2764 13.2548 23.4253C13.6193 24.1184 14.2317 24.5006 14.8592 24.7704C15.1685 24.9033 15.457 25.0281 15.7271 25.1459C15.5479 25.456 15.1987 26.1604 15.2339 27.0948C15.2856 28.4747 16.1386 29.3641 16.4373 29.6432C17.8619 30.9741 19.7632 30.6401 19.977 30.5988C20.0744 30.2181 20.3719 28.8615 19.6495 27.4839C18.4929 25.2785 15.839 25.1492 15.7275 25.1457C16.0478 24.756 16.6435 24.3499 18.0687 23.7084C18.8743 23.3457 20.6392 22.886 22.0003 22.4578M30.9998 22.4578V22.4413C30.9961 21.9766 30.8236 21.6395 30.7453 21.4905C30.3807 20.7974 29.7683 20.4152 29.1408 20.1454C28.8315 20.0126 28.543 19.8877 28.273 19.7699C28.4521 19.4598 28.8014 18.7554 28.7662 17.821C28.7144 16.4411 27.8615 15.5517 27.5627 15.2726C26.1382 13.9418 24.2368 14.2757 24.0231 14.317C23.9256 14.6977 23.6281 16.0543 24.3505 17.4319C25.5071 19.6373 28.1611 19.7666 28.2725 19.7701C27.9522 20.1598 27.3565 20.5659 25.9314 21.2074C25.1258 21.5701 23.3608 22.0298 21.9997 22.458" stroke="url(#paint0_linear_1868_1213)" stroke-width="1.35032" stroke-miterlimit="10" stroke-linejoin="round"/>
<defs>
<linearGradient id="paint0_linear_1868_1213" x1="13" y1="14.2498" x2="32.6249" y2="28.5719" gradientUnits="userSpaceOnUse">
<stop stop-color="#99BBC6"/>
<stop offset="1" stop-color="#005671"/>
</linearGradient>
</defs>
</svg>
