<svg width="20" height="19" viewBox="0 0 20 19" fill="none" xmlns="http://www.w3.org/2000/svg">
<g id="Group 60">
<g id="global">
<path id="Vector" d="M1.00196 9.45714V9.44059C1.00574 8.97588 1.17817 8.63877 1.25653 8.4898C1.62109 7.79671 2.23352 7.41455 2.86103 7.14469C3.17028 7.01186 3.45878 6.88699 3.72885 6.76924C3.54972 6.45894 3.20045 5.75454 3.23565 4.8203C3.28761 3.44062 4.14035 2.55101 4.43912 2.27193C5.86385 0.941073 7.76503 1.27504 7.97874 1.31632C8.07616 1.69701 8.37368 3.05364 7.65126 4.43122C6.49471 6.63661 3.84095 6.76588 3.72927 6.76944C4.04963 7.15915 4.64529 7.56519 6.07044 8.20674C6.87604 8.56941 8.64103 9.0291 10.0021 9.45735C11.3631 9.88561 13.1281 10.3452 13.9337 10.7079C15.3588 11.3494 15.9545 11.7555 16.2748 12.1452C16.1632 12.1488 13.5094 12.278 12.3528 14.4834C11.6304 15.861 11.9279 17.2176 12.0254 17.5983C12.2391 17.6396 14.1403 17.9736 15.565 16.6427C15.8638 16.3636 16.7165 15.474 16.7685 14.0943C16.8037 13.1601 16.4544 12.4557 16.2752 12.1454C16.5453 12.0276 16.8338 11.9028 17.1431 11.7699C17.7706 11.5001 18.383 11.1179 18.7476 10.4248C18.8259 10.2759 18.9984 9.93876 19.0021 9.47404V9.45749M1.00212 9.45749V9.47404C1.00589 9.93876 1.17832 10.2759 1.25668 10.4248C1.62125 11.1179 2.23367 11.5001 2.86118 11.7699C3.17043 11.9028 3.45894 12.0276 3.72901 12.1454C3.54987 12.4555 3.2006 13.1599 3.2358 14.0943C3.28755 15.4742 4.1405 16.3636 4.43928 16.6427C5.8638 17.9736 7.76518 17.6396 7.97889 17.5983C8.07632 17.2176 8.37383 15.861 7.65141 14.4834C6.49487 12.278 3.84089 12.1488 3.72943 12.1452C4.04978 11.7555 4.64544 11.3494 6.07059 10.7079C6.87619 10.3452 8.64118 9.88554 10.0022 9.45728M19.0018 9.45735V9.4408C18.998 8.97608 18.8256 8.63897 18.7472 8.49C18.3827 7.79692 17.7702 7.41476 17.1427 7.1449C16.8335 7.01206 16.545 6.88719 16.2749 6.76944C16.454 6.45935 16.8033 5.75495 16.7681 4.8205C16.7163 3.44062 15.8634 2.55121 15.5646 2.27214C14.1401 0.941278 12.2387 1.27525 12.025 1.31653C11.9276 1.69722 11.6301 3.05385 12.3525 4.43143C13.509 6.63682 16.163 6.76609 16.2745 6.76965C15.9541 7.15935 15.3585 7.5654 13.9333 8.20694C13.1277 8.56962 11.3627 9.0293 10.0017 9.45756" stroke="url(#paint0_linear_1914_104)" stroke-width="1.35034" stroke-miterlimit="10" stroke-linejoin="round"/>
</g>
</g>
<defs>
<linearGradient id="paint0_linear_1914_104" x1="1.00196" y1="1.24927" x2="20.6269" y2="15.5714" gradientUnits="userSpaceOnUse">
<stop stop-color="#A7BAB5"/>
<stop offset="1" stop-color="#235247"/>
</linearGradient>
</defs>
</svg>
