<svg width="44" height="45" viewBox="0 0 44 45" fill="none" xmlns="http://www.w3.org/2000/svg">
<rect y="0.5" width="44.0002" height="44.0002" rx="10" fill="#E9EEED"/>
<path d="M13.002 22.4571V22.4406C13.0057 21.9759 13.1782 21.6388 13.2565 21.4898C13.6211 20.7967 14.2335 20.4146 14.861 20.1447C15.1703 20.0119 15.4588 19.887 15.7289 19.7692C15.5497 19.4589 15.2004 18.7545 15.2356 17.8203C15.2876 16.4406 16.1403 15.551 16.4391 15.2719C17.8639 13.9411 19.765 14.275 19.9787 14.3163C20.0762 14.697 20.3737 16.0536 19.6513 17.4312C18.4947 19.6366 15.8409 19.7659 15.7293 19.7694C16.0496 20.1591 16.6453 20.5652 18.0704 21.2067C18.876 21.5694 20.641 22.0291 22.0021 22.4574C23.3631 22.8856 25.1281 23.3452 25.9337 23.7079C27.3588 24.3494 27.9545 24.7555 28.2748 25.1452C28.1632 25.1488 25.5094 25.278 24.3528 27.4834C23.6304 28.861 23.9279 30.2176 24.0254 30.5983C24.2391 30.6396 26.1403 30.9736 27.565 29.6427C27.8638 29.3636 28.7165 28.474 28.7685 27.0943C28.8037 26.1601 28.4544 25.4557 28.2752 25.1454C28.5453 25.0276 28.8338 24.9028 29.1431 24.7699C29.7706 24.5001 30.383 24.1179 30.7476 23.4248C30.8259 23.2759 30.9984 22.9388 31.0021 22.474V22.4575M13.0021 22.4575V22.474C13.0059 22.9388 13.1783 23.2759 13.2567 23.4248C13.6212 24.1179 14.2337 24.5001 14.8612 24.7699C15.1704 24.9028 15.4589 25.0276 15.729 25.1454C15.5499 25.4555 15.2006 26.1599 15.2358 27.0943C15.2876 28.4742 16.1405 29.3636 16.4393 29.6427C17.8638 30.9736 19.7652 30.6396 19.9789 30.5983C20.0763 30.2176 20.3738 28.861 19.6514 27.4834C18.4949 25.278 15.8409 25.1488 15.7294 25.1452C16.0498 24.7555 16.6454 24.3494 18.0706 23.7079C18.8762 23.3452 20.6412 22.8855 22.0022 22.4573M31.0018 22.4573V22.4408C30.998 21.9761 30.8256 21.639 30.7472 21.49C30.3827 20.7969 29.7702 20.4148 29.1427 20.1449C28.8335 20.0121 28.545 19.8872 28.2749 19.7694C28.454 19.4594 28.8033 18.755 28.7681 17.8205C28.7163 16.4406 27.8634 15.5512 27.5646 15.2721C26.1401 13.9413 24.2387 14.2753 24.025 14.3165C23.9276 14.6972 23.6301 16.0538 24.3525 17.4314C25.509 19.6368 28.163 19.7661 28.2745 19.7697C27.9541 20.1594 27.3585 20.5654 25.9333 21.2069C25.1277 21.5696 23.3627 22.0293 22.0017 22.4576" stroke="url(#paint0_linear_1868_759)" stroke-width="1.35034" stroke-miterlimit="10" stroke-linejoin="round"/>
<defs>
<linearGradient id="paint0_linear_1868_759" x1="13.002" y1="14.2493" x2="32.6269" y2="28.5714" gradientUnits="userSpaceOnUse">
<stop stop-color="#A7BAB5"/>
<stop offset="1" stop-color="#235247"/>
</linearGradient>
</defs>
</svg>
