<svg width="121" height="28" viewBox="0 0 121 28" fill="none" xmlns="http://www.w3.org/2000/svg">
<path d="M14.555 14.0001C12.5052 13.3551 9.84692 12.6628 8.63361 12.1166C6.4872 11.1503 5.59007 10.5388 5.10759 9.95186C5.27578 9.94649 9.27261 9.75179 11.0145 6.43027C12.1025 4.3555 11.6544 2.31229 11.5077 1.73893C11.1858 1.67676 8.32247 1.17377 6.17669 3.17817C5.72671 3.59849 4.4424 4.93833 4.36414 7.01625C4.31113 8.42331 4.83716 9.4842 5.10696 9.95154C4.70021 10.1289 4.26569 10.317 3.79993 10.517C2.85484 10.9234 1.93247 11.499 1.3834 12.5429C1.26538 12.7672 1.00568 13.275 1 13.9749V13.9998" stroke="#191919" stroke-width="1.57094" stroke-linecap="round" stroke-linejoin="round"/>
<path d="M1 14.0003V14.0252C1.00568 14.7251 1.26538 15.2329 1.3834 15.4572C1.93247 16.5011 2.85484 17.0767 3.79993 17.4831C4.26569 17.6831 4.70021 17.8712 5.10696 18.0486C4.83716 18.5156 4.31113 19.5765 4.36414 20.9838C4.44208 23.0621 5.72671 24.4016 6.17669 24.8219C8.32216 26.8263 11.1858 26.3233 11.5077 26.2612C11.6544 25.6878 12.1025 23.6446 11.0145 21.5698C9.27261 18.2483 5.27547 18.0536 5.10759 18.0482C5.59008 17.4613 6.4872 16.8498 8.63361 15.8835C9.84692 15.3373 12.5052 14.645 14.555 14" stroke="#191919" stroke-width="1.57094" stroke-linecap="round" stroke-linejoin="round"/>
<path d="M28.1097 14V13.9751C28.104 13.2752 27.8443 12.7675 27.7263 12.5431C27.1772 11.4993 26.2549 10.9237 25.3098 10.5173C24.844 10.3172 24.4095 10.1291 24.0027 9.95178C24.2725 9.48476 24.7986 8.42387 24.7456 7.0165C24.6676 4.93826 23.383 3.59873 22.933 3.17841C20.7875 1.17401 17.9239 1.67701 17.602 1.73917C17.4553 2.31253 17.0072 4.35575 18.0952 6.43051C19.8371 9.75204 23.8342 9.94673 24.0021 9.9521C23.5196 10.539 22.6225 11.1506 20.4761 12.1168C19.2628 12.663 16.6045 13.3554 14.5547 14.0003" stroke="#191919" stroke-width="1.57094" stroke-linecap="round" stroke-linejoin="round"/>
<path d="M14.5547 14C16.6045 14.645 19.2628 15.3373 20.4761 15.8835C22.6225 16.8498 23.5196 17.4613 24.0021 18.0482C23.8339 18.0536 19.8371 18.2483 18.0952 21.5698C17.0072 23.6446 17.4553 25.6878 17.602 26.2612C17.9239 26.3233 20.7872 26.8263 22.933 24.8219C23.383 24.4016 24.6673 23.0618 24.7456 20.9838C24.7986 19.5768 24.2725 18.5159 24.0027 18.0486C24.4095 17.8712 24.844 17.6831 25.3098 17.4831C26.2549 17.0767 27.1772 16.5011 27.7263 15.4572C27.8443 15.2329 28.104 14.7251 28.1097 14.0252V14.0003" stroke="#191919" stroke-width="1.57094" stroke-linecap="round" stroke-linejoin="round"/>
<path d="M14.555 14.0001C12.5052 13.3551 9.84692 12.6628 8.63361 12.1166C6.4872 11.1503 5.59008 10.5388 5.10759 9.95186M14.555 14.0001C12.5052 14.6451 9.84716 15.3373 8.63384 15.8835C6.48743 16.8498 5.58968 17.4616 5.10719 18.0486M14.555 14.0001C16.6049 13.3551 19.2625 12.6631 20.4759 12.1169C22.6223 11.1506 23.52 10.5388 24.0025 9.95185M14.555 14.0001C16.6049 14.6451 19.2631 15.3373 20.4764 15.8835C22.6228 16.8498 23.5199 17.4613 24.0024 18.0482M5.10759 9.95186C5.27578 9.94649 9.27261 9.7518 11.0145 6.43027C12.1025 4.3555 11.6544 2.31229 11.5077 1.73893C11.1858 1.67676 8.32247 1.17377 6.17669 3.17817C5.72671 3.59849 4.4424 4.93833 4.36414 7.01625C4.31113 8.42331 4.83779 9.48452 5.10759 9.95186ZM5.10759 9.95186C4.70084 10.1292 4.26569 10.317 3.79993 10.517C2.85484 10.9234 1.93247 11.499 1.3834 12.5429C1.26538 12.7672 1.00568 13.275 1 13.9749V13.9998L1.00023 14.0252C1.00591 14.7251 1.26561 15.2329 1.38363 15.4572C1.9327 16.5011 2.85507 17.0767 3.80016 17.4831C4.26592 17.6831 4.70044 17.8712 5.10719 18.0486M5.10719 18.0486C4.83739 18.5156 4.31136 19.5765 4.36437 20.9838C4.44232 23.0621 5.72694 24.4016 6.17693 24.8219C8.32239 26.8263 11.1861 26.3233 11.5079 26.2612C11.6547 25.6878 12.1027 23.6446 11.0147 21.5698C9.27284 18.2483 5.27507 18.0539 5.10719 18.0486ZM24.0025 9.95185C24.4093 10.1292 24.8438 10.3173 25.3095 10.5173C26.2546 10.9238 27.177 11.4993 27.7261 12.5432C27.8441 12.7675 28.1038 13.2753 28.1095 13.9752V14.0001L28.11 14.0252C28.1043 14.7251 27.8446 15.2329 27.7266 15.4572C27.1775 16.5011 26.2552 17.0767 25.3101 17.4831C24.8443 17.6831 24.4092 17.8709 24.0024 18.0482M24.0025 9.95185C24.2723 9.48483 24.7983 8.42394 24.7453 7.01656C24.6674 4.93832 23.3827 3.5988 22.9328 3.17848C20.7873 1.17408 17.9236 1.67707 17.6018 1.73924C17.455 2.3126 17.0069 4.35581 18.095 6.43058C19.8369 9.7521 23.8346 9.94648 24.0025 9.95185ZM24.0024 18.0482C23.8342 18.0536 19.8374 18.2483 18.0955 21.5698C17.0075 23.6446 17.4556 25.6878 17.6023 26.2612C17.9242 26.3233 20.7875 26.8263 22.9333 24.8219C23.3833 24.4016 24.6676 23.0618 24.7459 20.9838C24.7989 19.5768 24.2722 18.5156 24.0024 18.0482Z" stroke="url(#paint0_linear_295_23379)" stroke-width="1.57094" stroke-miterlimit="10" stroke-linejoin="round"/>
<path d="M53.9961 9.22254V10.8054C53.9961 11.1791 53.8862 11.5528 53.4465 11.5528C53.0947 11.5528 52.9189 10.9813 52.787 10.7175C51.7317 8.60698 50.3687 7.57373 48.2363 7.57373C43.9934 7.57373 41.9709 11.311 41.9709 14.7845C41.9709 19.577 44.8728 21.9513 48.1044 21.9513C50.039 21.9513 51.38 21.1819 52.743 19.8188C52.9628 19.599 53.2047 19.2253 53.5784 19.2253C53.8642 19.2253 54.062 19.4671 54.062 19.7529C54.062 20.4784 52.4132 21.7315 51.8636 22.0612C50.6765 22.8087 49.5773 23.2044 47.7527 23.2044C43.3559 23.2044 39.7285 19.9507 39.7285 15.444C39.7285 11.1351 42.2787 6.45255 48.3242 6.45255C50.1929 6.45255 51.2041 6.80429 52.5232 7.4858C53.7543 8.12333 53.9961 8.585 53.9961 9.22254Z" fill="#191919"/>
<path d="M57.4625 18.7125C57.8213 20.6739 59.5197 21.87 61.4333 21.87C64.0884 21.87 64.9017 19.8606 65.5476 19.8606C65.7868 19.8606 66.0021 20.052 66.0021 20.2912C66.0021 20.961 64.9974 21.7982 64.4951 22.1331C63.4665 22.8268 62.2944 23.2334 61.0506 23.2334C57.917 23.2334 55.4054 20.9849 55.4054 17.7796C55.4054 14.2633 58.204 11.3928 61.7443 11.3928C64.1841 11.3928 65.6672 12.9237 65.6672 14.4307C65.6672 16.153 64.232 17.1576 62.7967 17.7078C61.2658 18.3058 59.5436 18.4972 57.4625 18.7125ZM57.319 17.6839C59.3283 17.4925 63.7536 17.062 63.7536 14.3829C63.7536 13.1151 62.7728 12.5649 61.6247 12.5649C58.6825 12.5649 57.2951 15.0048 57.319 17.6839ZM59.2326 8.73764L61.5768 7.37418C62.2944 6.96753 62.7728 6.72832 63.1316 6.72832C63.61 6.72832 63.9688 7.54162 63.9688 8.02003C63.9688 8.30707 63.4187 8.66588 62.9881 8.8094L60.2612 9.76622C59.711 9.93366 59.3761 10.0772 59.1369 10.0772C58.8499 10.0772 58.5868 9.59878 58.5868 9.31173C58.5868 9.12037 58.9695 8.88116 59.2326 8.73764Z" fill="#191919"/>
<path d="M68.8964 19.9324V15.3158C68.8964 14.2154 68.3941 13.6653 67.8679 13.426C67.6526 13.3304 67.3177 13.2347 67.3177 12.9237C67.3177 12.5649 67.6765 12.3018 67.9396 12.1104C68.2027 11.9191 68.9443 11.3928 69.2792 11.3928C70.2121 11.3928 70.4752 13.7131 70.5709 14.4068C71.0493 13.2586 72.4366 11.3928 73.7762 11.3928C74.7091 11.3928 75.1396 11.9669 75.1396 12.852C75.1396 13.1868 75.02 13.737 74.5895 13.737C74.1828 13.737 73.6087 13.2347 73.1303 13.2347C72.4127 13.2347 71.719 14.1437 71.3841 14.7178C70.9297 15.4832 70.6905 16.2247 70.6905 17.2533V19.9324C70.6905 21.3437 70.7861 21.5829 71.2167 21.7504C71.6473 21.9178 71.8386 22.0135 71.8386 22.3005C71.8386 22.8268 71.4559 22.8746 71.0493 22.8746H68.4898C68.1071 22.8746 67.6765 22.8507 67.6765 22.3005C67.6765 22.0374 67.8679 21.9178 68.418 21.6786C68.7768 21.5351 68.8964 21.3916 68.8964 19.9324Z" fill="#191919"/>
<path d="M78.0424 18.7125C78.4012 20.6739 80.0996 21.87 82.0132 21.87C84.6683 21.87 85.4816 19.8606 86.1275 19.8606C86.3667 19.8606 86.582 20.052 86.582 20.2912C86.582 20.961 85.5773 21.7982 85.075 22.1331C84.0464 22.8268 82.8743 23.2334 81.6305 23.2334C78.4969 23.2334 75.9853 20.9849 75.9853 17.7796C75.9853 14.2633 78.7839 11.3928 82.3242 11.3928C84.764 11.3928 86.2471 12.9237 86.2471 14.4307C86.2471 16.153 84.8119 17.1576 83.3766 17.7078C81.8457 18.3058 80.1235 18.4972 78.0424 18.7125ZM77.8989 17.6839C79.9082 17.4925 84.3335 17.062 84.3335 14.3829C84.3335 13.1151 83.3527 12.5649 82.2045 12.5649C79.2623 12.5649 77.875 15.0048 77.8989 17.6839ZM79.8125 8.73764L82.1567 7.37418C82.8743 6.96753 83.3527 6.72832 83.7115 6.72832C84.1899 6.72832 84.5487 7.54162 84.5487 8.02003C84.5487 8.30707 83.9986 8.66588 83.568 8.8094L80.8411 9.76622C80.2909 9.93366 79.956 10.0772 79.7168 10.0772C79.4298 10.0772 79.1667 9.59878 79.1667 9.31173C79.1667 9.12037 79.5494 8.88116 79.8125 8.73764Z" fill="#191919"/>
<path d="M90.5767 5.7715V13.2825C91.5096 12.1583 92.873 11.3928 94.4039 11.3928C97.6332 11.3928 99.0923 14.0001 99.0923 16.9424C99.0923 21.1045 96.2936 23.2334 93.2797 23.2334C90.2657 23.2334 88.7826 21.6308 88.7826 18.2819V7.42202C88.7826 6.63264 88.3282 6.53696 87.8737 6.36952C87.7062 6.32167 87.4909 6.22599 87.4909 6.01071C87.4909 5.72366 87.7541 5.62798 87.9694 5.50838C88.3999 5.26917 89.572 4.76685 90.0265 4.76685C90.5767 4.76685 90.5767 5.2931 90.5767 5.7715ZM90.5767 14.7178V18.5689C90.5767 19.9085 91.366 22.1092 93.6385 22.1092C96.174 22.1092 97.1787 19.6454 97.1787 17.4686C97.1787 14.5981 95.6239 12.6128 94.0212 12.6128C92.6577 12.6128 91.2704 13.6174 90.5767 14.7178Z" fill="#191919"/>
<path d="M101.904 19.9324V15.3158C101.904 14.2154 101.401 13.6653 100.875 13.426C100.66 13.3304 100.325 13.2347 100.325 12.9237C100.325 12.5649 100.684 12.3018 100.947 12.1104C101.21 11.9191 101.952 11.3928 102.286 11.3928C103.219 11.3928 103.482 13.7131 103.578 14.4068C104.057 13.2586 105.444 11.3928 106.783 11.3928C107.716 11.3928 108.147 11.9669 108.147 12.852C108.147 13.1868 108.027 13.737 107.597 13.737C107.19 13.737 106.616 13.2347 106.138 13.2347C105.42 13.2347 104.726 14.1437 104.391 14.7178C103.937 15.4832 103.698 16.2247 103.698 17.2533V19.9324C103.698 21.3437 103.793 21.5829 104.224 21.7504C104.655 21.9178 104.846 22.0135 104.846 22.3005C104.846 22.8268 104.463 22.8746 104.057 22.8746H101.497C101.114 22.8746 100.684 22.8507 100.684 22.3005C100.684 22.0374 100.875 21.9178 101.425 21.6786C101.784 21.5351 101.904 21.3916 101.904 19.9324Z" fill="#191919"/>
<path d="M115.068 11.3928C118.298 11.3928 121.001 13.9762 121.001 17.2294C121.001 20.65 118.345 23.2334 114.949 23.2334C111.696 23.2334 109.088 20.5783 109.088 17.3251C109.088 14.0958 111.839 11.3928 115.068 11.3928ZM115.02 12.5649C112.246 12.5649 111.002 14.957 111.002 17.4208C111.002 19.8606 112.317 22.0613 114.973 22.0613C117.006 22.0613 119.087 20.3391 119.087 17.2055C119.087 14.7417 117.676 12.5649 115.02 12.5649Z" fill="#191919"/>
<defs>
<linearGradient id="paint0_linear_295_23379" x1="5" y1="2.00012" x2="24.5" y2="26.0001" gradientUnits="userSpaceOnUse">
<stop stop-color="#979694"/>
<stop offset="1" stop-color="#191919" stop-opacity="0"/>
</linearGradient>
</defs>
</svg>
