<svg width="20" height="19" viewBox="0 0 20 19" fill="none" xmlns="http://www.w3.org/2000/svg">
<g id="Group 59">
<g id="global">
<path id="Vector" d="M1.00003 9.45763V9.44108C1.0038 8.97637 1.17624 8.63925 1.2546 8.49029C1.61916 7.7972 2.23158 7.41504 2.85909 7.14518C3.16834 7.01235 3.45685 6.88747 3.72692 6.76972C3.54778 6.45943 3.19851 5.75503 3.23371 4.82079C3.28567 3.44111 4.13841 2.5515 4.43719 2.27242C5.86192 0.941561 7.76309 1.27553 7.9768 1.31681C8.07423 1.6975 8.37174 3.05413 7.64932 4.43171C6.49278 6.6371 3.83901 6.76637 3.72734 6.76993C4.04769 7.15964 4.64336 7.56568 6.0685 8.20723C6.8741 8.5699 8.63909 9.02959 10.0001 9.45784C11.3612 9.8861 13.1261 10.3457 13.9317 10.7084C15.3569 11.3499 15.9525 11.756 16.2729 12.1457C16.1612 12.1492 13.5075 12.2785 12.3509 14.4839C11.6285 15.8615 11.926 17.2181 12.0234 17.5988C12.2371 17.6401 14.1383 17.9741 15.563 16.6432C15.8618 16.3641 16.7146 15.4745 16.7665 14.0948C16.8017 13.1606 16.4525 12.4562 16.2733 12.1459C16.5434 12.0281 16.8319 11.9033 17.1411 11.7704C17.7686 11.5006 18.3811 11.1184 18.7456 10.4253C18.824 10.2764 18.9964 9.93924 19.0002 9.47453V9.45798M1.00018 9.45798V9.47453C1.00396 9.93924 1.17639 10.2764 1.25475 10.4253C1.61931 11.1184 2.23174 11.5006 2.85925 11.7704C3.1685 11.9033 3.457 12.0281 3.72707 12.1459C3.54793 12.456 3.19867 13.1604 3.23387 14.0948C3.28562 15.4747 4.13857 16.3641 4.43734 16.6432C5.86186 17.9741 7.76325 17.6401 7.97696 17.5988C8.07438 17.2181 8.3719 15.8615 7.64948 14.4839C6.49293 12.2785 3.83896 12.1492 3.72749 12.1457C4.04785 11.756 4.64351 11.3499 6.06866 10.7084C6.87426 10.3457 8.63925 9.88603 10.0003 9.45777M18.9998 9.45784V9.44128C18.9961 8.97657 18.8236 8.63946 18.7453 8.49049C18.3807 7.79741 17.7683 7.41525 17.1408 7.14539C16.8315 7.01255 16.543 6.88768 16.273 6.76993C16.4521 6.45984 16.8014 5.75544 16.7662 4.82099C16.7144 3.44111 15.8615 2.5517 15.5627 2.27263C14.1382 0.941767 12.2368 1.27574 12.0231 1.31701C11.9256 1.69771 11.6281 3.05434 12.3505 4.43192C13.5071 6.6373 16.1611 6.76658 16.2725 6.77014C15.9522 7.15984 15.3565 7.56589 13.9314 8.20743C13.1258 8.57011 11.3608 9.02979 9.99975 9.45805" stroke="url(#paint0_linear_1914_682)" stroke-width="1.35032" stroke-miterlimit="10" stroke-linejoin="round"/>
</g>
</g>
<defs>
<linearGradient id="paint0_linear_1914_682" x1="1.00003" y1="1.24976" x2="20.6249" y2="15.5719" gradientUnits="userSpaceOnUse">
<stop stop-color="#99BBC6"/>
<stop offset="1" stop-color="#005671"/>
</linearGradient>
</defs>
</svg>
