<svg width="217" height="197" viewBox="0 0 217 197" fill="none" xmlns="http://www.w3.org/2000/svg">
<path d="M179.424 6.72168H19.5757C8.75175 6.72168 0 15.4734 0 26.2974V176.479C0 187.306 8.75175 196.058 19.5757 196.058H179.424C190.248 196.058 199 187.306 199 176.479V26.2974C199 15.4734 190.213 6.72168 179.424 6.72168Z" fill="#D3DCDA" fill-opacity="0.8"/>
<path d="M19.001 35.7217C22.3155 35.7217 25 33.2609 25 30.2208C25 27.1825 22.3155 24.7217 19.001 24.7217C15.6845 24.7217 13 27.1825 13 30.2208C13 33.2609 15.6845 35.7217 19.001 35.7217Z" fill="#91A9A3"/>
<path d="M35.4991 35.7217C38.5374 35.7217 41 33.2609 41 30.2208C41 27.1825 38.5374 24.7217 35.4991 24.7217C32.4608 24.7217 30 27.1825 30 30.2208C30 33.2609 32.4608 35.7217 35.4991 35.7217Z" fill="#91A9A3"/>
<path d="M51.4991 35.7217C54.5374 35.7217 57 33.2609 57 30.2208C57 27.1825 54.5374 24.7217 51.4991 24.7217C48.4608 24.7217 46 27.1825 46 30.2208C46 33.2609 48.4608 35.7217 51.4991 35.7217Z" fill="#91A9A3"/>
<path d="M99 114.72V159.675C99 159.722 99 159.722 98.9536 159.722C74.0952 159.675 54 139.58 54 114.72C54 89.8638 74.144 69.7217 99 69.7217V114.72Z" fill="#33788D"/>
<path d="M99.0374 113.834L142.712 99.7217C142.762 99.7217 142.762 99.7217 142.762 99.7689C150.552 123.826 137.355 149.631 113.255 157.488C108.679 158.991 103.905 159.767 99.0848 159.72C99.0374 159.72 99.0374 159.72 99.0374 159.67V113.834C98.9875 113.834 98.9875 113.834 99.0374 113.834Z" fill="#4D899C"/>
<path d="M99 113.722L136.715 87.7217H136.763C139.536 91.4885 141.605 95.6317 143.014 100.011C143.014 100.06 143.014 100.06 142.969 100.06L99 113.722C99 113.816 98.9518 113.77 99 113.722Z" fill="#80ABB8"/>
<path d="M108 95.685V50.7681C108 50.7217 108 50.7217 108.05 50.7217C123.158 50.7217 136.091 57.2044 145 69.2705V69.3169L108 95.685C108.05 95.7339 108 95.7339 108 95.685Z" fill="#99BBC6"/>
<path d="M181.5 40.7476C196.295 40.7476 209.23 32.718 216.219 20.7476C209.306 8.77716 196.371 0.747559 181.5 0.747559C166.629 0.747559 153.695 8.77716 146.781 20.7476C153.695 32.718 166.633 40.7476 181.5 40.7476Z" fill="#E3E1DE"/>
<path d="M181.501 2.53223C176.67 2.53223 172.037 4.45138 168.62 7.86747C165.204 11.2836 163.285 15.9168 163.285 20.7479C163.285 25.579 165.204 30.2122 168.62 33.6283C172.037 37.0444 176.67 38.9635 181.501 38.9635C186.332 38.9635 190.965 37.0444 194.381 33.6283C197.797 30.2122 199.717 25.579 199.717 20.7479C199.717 15.9168 197.797 11.2836 194.381 7.86747C190.965 4.45138 186.332 2.53223 181.501 2.53223Z" fill="#B0AFAD"/>
<path d="M181.433 14.3501C179.776 14.3501 178.188 15.0081 177.017 16.1793C175.845 17.3505 175.188 18.939 175.188 20.5953C175.188 22.2517 175.845 23.8402 177.017 25.0114C178.188 26.1826 179.776 26.8406 181.433 26.8406C183.089 26.8406 184.678 26.1826 185.849 25.0114C187.02 23.8402 187.678 22.2517 187.678 20.5953C187.678 18.939 187.02 17.3505 185.849 16.1793C184.678 15.0081 183.089 14.3501 181.433 14.3501Z" fill="#323231"/>
</svg>
