<svg width="202" height="168" viewBox="0 0 202 168" fill="none" xmlns="http://www.w3.org/2000/svg">
<circle cx="101.426" cy="100.5" r="66.5" stroke="#323231" stroke-linecap="round" stroke-dasharray="2 10"/>
<path d="M168.213 150.129C186.874 150.129 202 135.44 202 117.314C202 99.1921 186.874 84.5 168.213 84.5C149.555 84.5 134.426 99.1921 134.426 117.314C134.426 135.44 149.555 150.129 168.213 150.129Z" fill="#7B9791"/>
<path d="M168.593 143.515C183.606 143.515 195.771 131.69 195.771 117.114C195.771 102.53 183.606 90.7119 168.593 90.7119C153.588 90.7119 141.415 102.53 141.415 117.114C141.415 131.69 153.588 143.515 168.593 143.515Z" stroke="#191919" stroke-opacity="0.1" stroke-width="2.52368" stroke-linecap="round" stroke-linejoin="round"/>
<path d="M168.141 116.687C171.241 116.687 173.753 114.175 173.753 111.077C173.753 107.977 171.241 105.465 168.141 105.465C165.043 105.465 162.531 107.977 162.531 111.077C162.531 114.175 165.043 116.687 168.141 116.687Z" stroke="#E3E1DE" stroke-width="1.16478" stroke-linecap="round" stroke-linejoin="round"/>
<path d="M178.562 128.736C178.562 128.743 178.559 128.751 178.555 128.756C178.549 128.758 178.544 128.761 178.536 128.761H157.748C157.74 128.761 157.735 128.758 157.729 128.756C157.725 128.751 157.722 128.743 157.722 128.736V126.477C157.722 123.894 158.819 121.416 160.774 119.591C162.726 117.763 165.378 116.737 168.141 116.737C170.904 116.737 173.554 117.763 175.51 119.589C177.462 121.416 178.562 123.894 178.562 126.477V128.736Z" stroke="#E3E1DE" stroke-width="1.16478" stroke-linecap="round" stroke-linejoin="round"/>
<path d="M34.2113 150.129C52.8681 150.129 67.9936 135.437 67.9936 117.316C67.9936 99.1914 52.8681 84.5 34.2113 84.5C15.5513 84.5 0.425781 99.1914 0.425781 117.316C0.425781 135.437 15.5513 150.129 34.2113 150.129Z" fill="#B87394"/>
<path d="M47.0145 113.689H38.0773V104.752H31.1041V113.689H22.167V120.662H31.1041V129.599H38.0773V120.662H47.0145V113.689Z" stroke="#E3E1DE" stroke-width="1.16472" stroke-linecap="round" stroke-linejoin="round"/>
<path d="M34.591 143.576C49.6031 143.576 61.7679 131.752 61.7679 117.176C61.7679 102.593 49.6031 90.7754 34.591 90.7754C19.5862 90.7754 7.41406 102.593 7.41406 117.176C7.41406 131.752 19.5862 143.576 34.591 143.576Z" stroke="#191919" stroke-opacity="0.1" stroke-width="2.52357" stroke-linecap="round" stroke-linejoin="round"/>
<path d="M102.21 66.1286C120.871 66.1286 135.997 51.4397 135.997 33.3175C135.997 15.1921 120.871 0.5 102.21 0.5C83.552 0.5 68.4258 15.1921 68.4258 33.3175C68.4258 51.4397 83.552 66.1286 102.21 66.1286Z" fill="#669AAA"/>
<path d="M102.554 36.5197C104.3 36.5197 105.712 35.1059 105.712 33.3604C105.712 31.617 104.3 30.2031 102.554 30.2031C100.808 30.2031 99.3955 31.617 99.3955 33.3604C99.3955 35.1059 100.808 36.5197 102.554 36.5197Z" fill="#E3E1DE"/>
<path d="M110.017 33.7116C110.617 25.5505 107.651 18.6832 103.402 18.3707C99.1442 18.0609 95.213 24.421 94.6154 32.5822C94.015 40.7461 96.9785 47.616 101.233 47.9258C105.488 48.2383 109.422 41.8728 110.017 33.7116Z" stroke="#E3E1DE" stroke-width="1.16478" stroke-linecap="round" stroke-linejoin="round"/>
<path d="M105.325 40.2663C112.864 37.0808 117.626 31.3101 115.965 27.3817C114.304 23.4532 106.85 22.8529 99.3108 26.0439C91.772 29.2321 87.0101 34.9973 88.6714 38.9257C90.3327 42.8541 97.7921 43.4545 105.325 40.2663Z" stroke="#E3E1DE" stroke-width="1.16478" stroke-linecap="round" stroke-linejoin="round"/>
<path d="M114.805 41.1528C117.108 37.5643 113.385 31.0699 106.496 26.6535C99.6067 22.2316 92.1528 21.5599 89.85 25.1539C87.5472 28.7452 91.2646 35.2368 98.1537 39.6587C105.048 44.0751 112.497 44.7467 114.805 41.1528Z" stroke="#E3E1DE" stroke-width="1.16478" stroke-linecap="round" stroke-linejoin="round"/>
<path d="M102.317 59.5152C117.33 59.5152 129.495 47.6903 129.495 33.1135C129.495 18.5297 117.33 6.71191 102.317 6.71191C87.3114 6.71191 75.1387 18.5297 75.1387 33.1135C75.1387 47.6903 87.3114 59.5152 102.317 59.5152Z" stroke="#191919" stroke-opacity="0.1" stroke-width="2.52369" stroke-linecap="round" stroke-linejoin="round"/>
</svg>
