<svg width="202" height="167" viewBox="0 0 202 167" fill="none" xmlns="http://www.w3.org/2000/svg">
<path d="M167.787 149.629C186.448 149.629 201.574 134.94 201.574 116.814C201.574 98.6921 186.448 84 167.787 84C149.129 84 134 98.6921 134 116.814C134 134.94 149.129 149.629 167.787 149.629Z" fill="#7B9791"/>
<path d="M168.166 143.015C183.179 143.015 195.344 131.19 195.344 116.614C195.344 102.03 183.179 90.2119 168.166 90.2119C153.161 90.2119 140.988 102.03 140.988 116.614C140.988 131.19 153.161 143.015 168.166 143.015Z" stroke="#191919" stroke-opacity="0.1" stroke-width="2.52368" stroke-linecap="round" stroke-linejoin="round"/>
<path d="M167.715 116.187C170.815 116.187 173.327 113.675 173.327 110.577C173.327 107.477 170.815 104.965 167.715 104.965C164.618 104.965 162.105 107.477 162.105 110.577C162.105 113.675 164.618 116.187 167.715 116.187Z" stroke="#E3E1DE" stroke-width="1.16478" stroke-linecap="round" stroke-linejoin="round"/>
<path d="M178.136 128.236C178.136 128.243 178.132 128.251 178.128 128.256C178.123 128.258 178.117 128.261 178.109 128.261H157.321C157.314 128.261 157.308 128.258 157.303 128.256C157.298 128.251 157.295 128.243 157.295 128.236V125.977C157.295 123.394 158.392 120.916 160.348 119.091C162.3 117.263 164.951 116.237 167.714 116.237C170.477 116.237 173.128 117.263 175.083 119.089C177.035 120.916 178.136 123.394 178.136 125.977V128.236Z" stroke="#E3E1DE" stroke-width="1.16478" stroke-linecap="round" stroke-linejoin="round"/>
<path d="M33.7855 149.629C52.4423 149.629 67.5678 134.937 67.5678 116.816C67.5678 98.6914 52.4423 84 33.7855 84C15.1255 84 0 98.6914 0 116.816C0 134.937 15.1255 149.629 33.7855 149.629Z" fill="#B87394"/>
<path d="M46.5897 113.189H37.6525V104.252H30.6793V113.189H21.7422V120.162H30.6793V129.099H37.6525V120.162H46.5897V113.189Z" stroke="#E3E1DE" stroke-width="1.16472" stroke-linecap="round" stroke-linejoin="round"/>
<path d="M34.1652 143.076C49.1773 143.076 61.3421 131.252 61.3421 116.676C61.3421 102.093 49.1773 90.2754 34.1652 90.2754C19.1604 90.2754 6.98828 102.093 6.98828 116.676C6.98828 131.252 19.1604 143.076 34.1652 143.076Z" stroke="#191919" stroke-opacity="0.1" stroke-width="2.52357" stroke-linecap="round" stroke-linejoin="round"/>
<path d="M101.784 65.6286C120.445 65.6286 135.571 50.9397 135.571 32.8175C135.571 14.6921 120.445 0 101.784 0C83.1262 0 68 14.6921 68 32.8175C68 50.9397 83.1262 65.6286 101.784 65.6286Z" fill="#669AAA"/>
<path d="M102.129 36.0197C103.875 36.0197 105.287 34.6059 105.287 32.8604C105.287 31.117 103.875 29.7031 102.129 29.7031C100.383 29.7031 98.9707 31.117 98.9707 32.8604C98.9707 34.6059 100.383 36.0197 102.129 36.0197Z" fill="#E3E1DE"/>
<path d="M109.592 33.2116C110.192 25.0505 107.226 18.1832 102.977 17.8707C98.7194 17.5609 94.7882 23.921 94.1906 32.0822C93.5902 40.2461 96.5536 47.116 100.808 47.4258C105.063 47.7383 108.997 41.3728 109.592 33.2116Z" stroke="#E3E1DE" stroke-width="1.16478" stroke-linecap="round" stroke-linejoin="round"/>
<path d="M104.901 39.7661C112.44 36.5806 117.201 30.81 115.54 26.8815C113.879 22.9531 106.425 22.3527 98.886 25.5437C91.3472 28.732 86.5853 34.4972 88.2466 38.4256C89.9079 42.354 97.3673 42.9544 104.901 39.7661Z" stroke="#E3E1DE" stroke-width="1.16478" stroke-linecap="round" stroke-linejoin="round"/>
<path d="M114.381 40.6526C116.684 37.0641 112.961 30.5698 106.072 26.1534C99.1829 21.7315 91.729 21.0598 89.4262 24.6538C87.1234 28.245 90.8408 34.7367 97.7299 39.1586C104.625 43.575 112.073 44.2466 114.381 40.6526Z" stroke="#E3E1DE" stroke-width="1.16478" stroke-linecap="round" stroke-linejoin="round"/>
<path d="M101.891 59.0153C116.904 59.0153 129.069 47.1904 129.069 32.6137C129.069 18.0298 116.904 6.21204 101.891 6.21204C86.8856 6.21204 74.7129 18.0298 74.7129 32.6137C74.7129 47.1904 86.8856 59.0153 101.891 59.0153Z" stroke="#191919" stroke-opacity="0.1" stroke-width="2.52369" stroke-linecap="round" stroke-linejoin="round"/>
</svg>
