<svg width="71" height="75" viewBox="0 0 71 75" fill="none" xmlns="http://www.w3.org/2000/svg">
<path d="M10.5563 7.19663L4.71742 4.27277C4.41248 4.12007 4.04149 4.24348 3.88879 4.54842L3.87312 4.57971C3.72042 4.88465 3.84383 5.25564 4.14877 5.40834L9.9876 8.33221C10.2925 8.48491 10.6635 8.3615 10.8162 8.05656L10.8319 8.02527C10.9846 7.72033 10.8612 7.34934 10.5563 7.19663Z" fill="white"/>
<path d="M52.5299 43.4125L48.3799 45.0825L43.1699 28.385C43.1466 28.3067 43.1616 28.2358 43.2149 28.1725C45.6174 25.455 45.9499 21.115 45.1049 17.71C45.0931 17.6636 45.065 17.6231 45.0259 17.5959C44.9868 17.5688 44.9394 17.5569 44.8924 17.5625L44.4049 17.615C44.3728 17.6189 44.3418 17.6293 44.3139 17.6457C44.2861 17.6621 44.2619 17.6841 44.2431 17.7102C44.2243 17.7363 44.2112 17.766 44.2046 17.7974C44.198 17.8288 44.1981 17.8612 44.2049 17.8925C45.0024 21.68 44.5874 29.945 38.3874 28.5825C38.3124 28.5658 38.2858 28.5208 38.3074 28.4475C39.0549 25.98 38.6824 22.2475 35.9499 21.13C32.8499 19.865 31.8099 23.1875 32.8599 25.4675C33.6766 27.2392 34.9983 28.47 36.8249 29.16C36.9033 29.19 36.9183 29.2392 36.8699 29.3075C35.2749 31.63 32.4624 33.215 29.7949 31.4525C28.0083 30.2725 26.7608 28.7608 26.0524 26.9175C25.8999 26.515 25.6149 26.205 25.1974 26.5375C25.1136 26.6053 25.0546 26.6991 25.0297 26.804C25.0048 26.909 25.0154 27.0192 25.0599 27.1175C26.3324 29.91 29.9649 34.5425 33.5974 32.8425C33.6331 32.8255 33.6739 32.8227 33.7116 32.8348C33.7492 32.8469 33.7808 32.8729 33.7999 32.9075L42.0499 47.7275L37.8574 49.5875C36.8749 46.9 35.5424 44.2825 32.9899 42.885C31.3649 41.9925 29.0399 41.3975 27.5649 40.695C21.9374 38.0175 18.1474 32.7325 17.4649 26.5575C16.7074 19.715 19.5524 12.7175 25.3749 8.875C34.3824 2.93 46.3874 5.8725 51.7049 15.18C54.5549 20.17 54.7824 25.9325 52.5899 31.3075C52.2349 32.1775 51.8758 33.0458 51.5124 33.9125C50.6041 36.0775 50.6166 38.2158 51.5499 40.3275C52.0383 41.4325 52.3649 42.4608 52.5299 43.4125Z" fill="white"/>
<path d="M7.68277 15.8399L1.18378 14.8106C0.875577 14.7617 0.586161 14.972 0.537347 15.2802L0.517793 15.4037C0.468979 15.7119 0.679252 16.0013 0.987451 16.0501L7.48644 17.0794C7.79464 17.1283 8.08406 16.918 8.13287 16.6098L8.15242 16.4863C8.20124 16.1781 7.99096 15.8887 7.68277 15.8399Z" fill="white"/>
<path d="M48.38 45.0825L48.51 45.5775C48.5209 45.6206 48.5147 45.6662 48.4928 45.7048C48.471 45.7435 48.435 45.7722 48.3925 45.785L47.935 45.92C47.82 45.955 47.7433 45.915 47.705 45.8L47.5075 45.215L42.43 28.9575C42.3983 28.8558 42.3358 28.83 42.2425 28.88C40.9091 29.605 39.495 29.7992 38 29.4625C37.91 29.4408 37.8408 29.47 37.7925 29.55C37.0441 30.7783 36.0308 31.7233 34.7525 32.385C34.6725 32.4267 34.6541 32.4867 34.6975 32.565L42.8325 47.1975L43.13 47.805C43.195 47.94 43.155 48.0267 43.01 48.065L42.48 48.2125C42.3766 48.2408 42.3 48.2075 42.25 48.1125L42.05 47.7275L33.8 32.9075C33.7809 32.8729 33.7493 32.8469 33.7116 32.8348C33.674 32.8227 33.6331 32.8255 33.5975 32.8425C29.965 34.5425 26.3325 29.91 25.06 27.1175C25.0155 27.0192 25.0049 26.909 25.0297 26.804C25.0546 26.6991 25.1136 26.6053 25.1975 26.5375C25.615 26.205 25.9 26.515 26.0525 26.9175C26.7608 28.7608 28.0083 30.2725 29.795 31.4525C32.4625 33.215 35.275 31.63 36.87 29.3075C36.9183 29.2392 36.9033 29.19 36.825 29.16C34.9983 28.47 33.6766 27.2392 32.86 25.4675C31.81 23.1875 32.85 19.865 35.95 21.13C38.6825 22.2475 39.055 25.98 38.3075 28.4475C38.2858 28.5208 38.3125 28.5658 38.3875 28.5825C44.5875 29.945 45.0025 21.68 44.205 17.8925C44.1982 17.8612 44.1981 17.8288 44.2046 17.7974C44.2112 17.766 44.2243 17.7363 44.2432 17.7102C44.262 17.6841 44.2861 17.6621 44.314 17.6457C44.3418 17.6293 44.3728 17.6189 44.405 17.615L44.8925 17.5625C44.9394 17.5569 44.9869 17.5688 45.026 17.5959C45.065 17.6231 45.0931 17.6636 45.105 17.71C45.95 21.115 45.6175 25.455 43.215 28.1725C43.1616 28.2358 43.1466 28.3067 43.17 28.385L48.38 45.0825ZM35.325 21.9175C34.3366 21.5692 33.7116 21.8683 33.45 22.815C32.77 25.27 35.1075 27.4975 37.1975 28.345C37.2841 28.3783 37.3458 28.3533 37.3825 28.27C38.33 26.1425 37.77 22.78 35.325 21.9175Z" fill="#191919"/>
<path d="M35.3249 21.9175C37.7699 22.78 38.3299 26.1425 37.3824 28.27C37.3458 28.3534 37.2841 28.3784 37.1974 28.345C35.1074 27.4975 32.7699 25.27 33.4499 22.815C33.7116 21.8684 34.3366 21.5692 35.3249 21.9175Z" fill="white"/>
<path d="M47.5074 45.215L42.8324 47.1975L34.6974 32.565C34.6541 32.4867 34.6724 32.4267 34.7524 32.385C36.0307 31.7233 37.0441 30.7783 37.7924 29.55C37.8407 29.47 37.9099 29.4408 37.9999 29.4625C39.4949 29.7992 40.9091 29.605 42.2424 28.88C42.3357 28.83 42.3982 28.8558 42.4299 28.9575L47.5074 45.215Z" fill="white"/>
<path d="M52.53 43.4125C54.1783 43.7141 55.1125 44.7008 55.3325 46.3725C55.42 47.05 55.2575 47.6875 55.1125 48.365L39.43 55.0625L39.345 54.84C39.3178 54.7679 39.2632 54.7088 39.1925 54.675C36.755 53.565 36.4025 51.71 37.8575 49.5875L42.05 47.7275L42.25 48.1125C42.3 48.2075 42.3766 48.2408 42.48 48.2125L43.01 48.065C43.155 48.0266 43.195 47.94 43.13 47.805L42.8325 47.1975L47.5075 45.215L47.705 45.8C47.7433 45.915 47.82 45.955 47.935 45.92L48.3925 45.785C48.435 45.7722 48.471 45.7435 48.4928 45.7048C48.5147 45.6661 48.5209 45.6205 48.51 45.5775L48.38 45.0825L52.53 43.4125Z" fill="#CCDDE3"/>
<path d="M55.1126 48.365C55.4009 48.565 55.4401 48.7533 55.2301 48.93L39.6001 55.525C39.4701 55.3867 39.4134 55.2325 39.4301 55.0625L55.1126 48.365Z" fill="#19667F"/>
<path d="M55.23 48.93C57.5833 50.0017 58.2966 51.8167 57.37 54.375L42.0375 60.935C41.215 60.2975 39.7925 59.2575 39.515 58.28C39.3125 57.555 39.63 56.3625 39.6 55.525L55.23 48.93Z" fill="#CCDDE3"/>
<path d="M57.7624 54.725L42.0799 61.41C41.8583 61.2217 41.8441 61.0634 42.0374 60.935L57.3699 54.375C57.5049 54.34 57.6283 54.3317 57.7399 54.35C57.8249 54.3634 57.8616 54.4125 57.8499 54.4975C57.8399 54.5859 57.8108 54.6617 57.7624 54.725Z" fill="#19667F"/>
<path d="M57.7626 54.725C58.2259 55.0016 58.6392 55.275 59.0026 55.545C61.1901 57.16 60.2201 59.69 58.1901 60.79L47.0901 65.53C45.1451 66.59 42.2276 66.155 41.9001 63.6175C41.8126 62.945 42.0351 62.15 42.0801 61.41L57.7626 54.725Z" fill="#CCDDE3"/>
<path d="M58.1901 60.79L58.7526 64.6875C58.7657 64.7763 58.7487 64.867 58.7044 64.9457C58.6601 65.0243 58.5909 65.0865 58.5076 65.1225L49.8676 68.805C49.6559 68.895 49.4684 68.86 49.3051 68.7C48.4284 67.8483 47.6901 66.7916 47.0901 65.53L58.1901 60.79Z" fill="#80ABB8"/>
</svg>
