<svg width="198" height="198" viewBox="0 0 198 198" fill="none" xmlns="http://www.w3.org/2000/svg">
<path fill-rule="evenodd" clip-rule="evenodd" d="M41.6696 47.7701C41.6699 47.7694 41.6702 47.7686 41.6705 47.7679L97.0134 47.769L151.025 47.7679C151.025 47.7686 151.025 47.7694 151.026 47.7701L179.045 47.7707V63.0645L179.045 63.0647L179.045 63.0801V146.576C179.045 146.626 179.021 146.657 178.973 146.67C178.97 146.671 178.966 146.672 178.963 146.673L178.962 146.805C178.953 149.751 178.953 152.744 178.962 155.783C178.976 160.296 176.647 163.961 172.436 165.134C170.123 165.781 166.794 165.692 163.798 165.611C162.847 165.585 161.93 165.561 161.09 165.561L95.8226 165.559L31.6054 165.56C30.7652 165.56 29.8482 165.585 28.8977 165.611C25.9016 165.692 22.5719 165.781 20.2594 165.134C16.0486 163.961 13.7191 160.296 13.7329 155.783C13.7421 152.744 13.7421 149.751 13.7329 146.805L13.7328 146.673C13.7293 146.672 13.7256 146.671 13.7219 146.67C13.6739 146.657 13.6499 146.626 13.6499 146.576V63.078L13.6499 63.0647L13.6499 63.0645V47.7707L41.6696 47.7701ZM96.3476 95.7203C96.1882 96.1297 96.1042 96.569 96.1042 97.0169V97.4153C96.1042 97.8632 96.1882 98.3025 96.3476 98.7119C96.507 98.3025 96.5911 97.8632 96.5911 97.4153V97.0169C96.5911 96.569 96.507 96.1298 96.3476 95.7203ZM133.24 109.198H137.914C138.904 109.198 139.853 109.592 140.553 110.292C141.253 110.992 141.646 111.941 141.646 112.931V113.119C141.646 114.109 141.253 115.058 140.553 115.758C140.137 116.174 139.633 116.481 139.085 116.662C138.773 116.745 138.442 116.804 138.098 116.846C138.036 116.849 137.975 116.851 137.914 116.851H134.175C133.914 116.837 133.661 116.823 133.418 116.812C128.274 116.585 128.425 109.553 133.24 109.198ZM53.611 116.663C53.0626 116.481 52.5585 116.174 52.1425 115.758C51.4426 115.058 51.0494 114.109 51.0494 113.119V112.931C51.0494 111.941 51.4426 110.991 52.1425 110.292C52.8425 109.592 53.7917 109.198 54.7816 109.198H59.4543C64.2707 109.553 64.4219 116.585 59.2774 116.812C59.0347 116.823 58.7817 116.837 58.5213 116.851H54.7816C54.7199 116.851 54.6583 116.849 54.597 116.846C54.2533 116.804 53.9223 116.745 53.611 116.663ZM71.9861 116.851C71.4996 116.849 71.0182 116.752 70.5687 116.566C70.1145 116.378 69.7019 116.102 69.3543 115.755C69.0067 115.407 68.731 114.994 68.5429 114.54C68.3547 114.086 68.2579 113.599 68.2579 113.108V112.942C68.2579 111.949 68.6523 110.997 69.3543 110.295C70.0563 109.593 71.0084 109.198 72.0012 109.198H79.369C80.3538 109.202 81.2974 109.595 81.994 110.292C82.6939 110.991 83.0871 111.941 83.0871 112.931V113.119C83.0871 114.109 82.6939 115.058 81.994 115.758C81.2941 116.458 80.3447 116.851 79.3549 116.851H71.9861ZM100.701 116.851H92.0095C91.518 116.851 91.0312 116.754 90.577 116.566C90.1229 116.378 89.7102 116.102 89.3626 115.755C89.0151 115.407 88.7393 114.994 88.5512 114.54C88.3631 114.086 88.2663 113.599 88.2663 113.108V112.942C88.2663 111.949 88.6606 110.997 89.3626 110.295C90.0613 109.596 91.0077 109.202 91.9954 109.198H100.686C101.679 109.198 102.631 109.593 103.333 110.295C104.035 110.997 104.429 111.949 104.429 112.942V113.108C104.429 113.599 104.332 114.086 104.144 114.54C103.956 114.994 103.68 115.407 103.333 115.755C102.985 116.102 102.572 116.378 102.118 116.566C101.669 116.752 101.187 116.849 100.701 116.851ZM113.325 116.851C112.341 116.847 111.398 116.454 110.701 115.758C110.001 115.058 109.608 114.109 109.608 113.119V112.931C109.608 111.941 110.001 110.992 110.701 110.292C111.401 109.592 112.351 109.198 113.34 109.198H120.708C121.696 109.202 122.642 109.596 123.341 110.295C124.043 110.997 124.437 111.949 124.437 112.942V113.108C124.437 113.599 124.341 114.086 124.152 114.54C123.964 114.994 123.689 115.407 123.341 115.755C122.993 116.102 122.581 116.378 122.127 116.566C121.672 116.754 121.186 116.851 120.694 116.851H113.325ZM119.332 127.286C119.147 127.731 119.052 128.207 119.051 128.689L119.051 128.938C119.049 129.91 119.433 130.843 120.12 131.532C120.359 131.772 120.629 131.976 120.919 132.139C121.201 131.978 121.463 131.779 121.696 131.545C122.389 130.853 122.777 129.915 122.777 128.936V128.725C122.777 127.747 122.389 126.808 121.696 126.116C121.458 125.877 121.189 125.674 120.9 125.511C120.619 125.672 120.36 125.869 120.129 126.099C119.788 126.438 119.517 126.842 119.332 127.286ZM96.3477 125.838C96.4558 125.924 96.5596 126.017 96.6583 126.116C97.3504 126.808 97.7393 127.747 97.7393 128.725V128.936C97.7393 129.914 97.3504 130.853 96.6583 131.545C96.5595 131.644 96.4558 131.737 96.3476 131.823C96.2395 131.737 96.1357 131.644 96.037 131.545C95.3449 130.853 94.956 129.915 94.956 128.936V128.725C94.956 127.747 95.3449 126.808 96.037 126.116C96.1357 126.017 96.2395 125.924 96.3477 125.838ZM71.7761 132.139C71.4942 131.978 71.2325 131.779 70.9989 131.545C70.3067 130.853 69.9179 129.914 69.9179 128.936V128.725C69.9179 127.747 70.3067 126.808 70.9989 126.116C71.2377 125.877 71.5059 125.674 71.7949 125.511C72.0763 125.672 72.3357 125.869 72.5661 126.099C72.9071 126.438 73.1779 126.842 73.3629 127.286C73.5479 127.731 73.6435 128.207 73.6443 128.689L73.6448 128.938C73.6465 129.91 73.2619 130.843 72.5756 131.532C72.3361 131.772 72.0667 131.976 71.7761 132.139ZM103.206 127.238C103.029 127.665 102.938 128.122 102.938 128.584V129.077C102.938 129.539 103.029 129.997 103.206 130.423C103.383 130.85 103.642 131.238 103.969 131.565C104.295 131.892 104.683 132.151 105.11 132.328C105.537 132.505 105.995 132.596 106.457 132.596H110.325C111.258 132.596 112.153 132.225 112.813 131.565C113.473 130.905 113.844 130.01 113.844 129.077V128.584C113.844 127.651 113.473 126.756 112.813 126.096C112.153 125.436 111.258 125.065 110.325 125.065H106.457C105.995 125.065 105.537 125.156 105.11 125.333C104.683 125.51 104.295 125.769 103.969 126.096C103.642 126.423 103.383 126.811 103.206 127.238ZM89.4896 127.238C89.6665 127.665 89.7575 128.122 89.7575 128.584V129.077C89.7575 129.539 89.6665 129.997 89.4896 130.424C89.3128 130.85 89.0535 131.238 88.7268 131.565C88.4 131.892 88.012 132.151 87.5851 132.328C87.1581 132.505 86.7005 132.596 86.2383 132.596H82.3706C81.4372 132.596 80.5421 132.225 79.8821 131.565C79.2222 130.905 78.8514 130.01 78.8514 129.077V128.584C78.8514 127.651 79.2222 126.756 79.8821 126.096C80.5421 125.436 81.4372 125.065 82.3706 125.065H86.2383C86.7005 125.065 87.1581 125.156 87.5851 125.333C88.012 125.51 88.4 125.769 88.7268 126.096C89.0535 126.423 89.3128 126.811 89.4896 127.238Z" fill="white"/>
<path d="M152.194 29.3463L151.038 32.0969C108.544 32.0913 66.0805 32.0895 23.6461 32.0913C19.2567 32.0913 15.5393 34.2995 14.3389 38.608C14.0715 39.5654 13.9388 41.1833 13.9406 43.4616C13.9406 45.1441 13.9406 46.7739 13.9406 48.3512V147.175C13.9406 147.225 13.9646 147.256 14.0125 147.269C14.0494 147.278 14.0734 147.291 14.0844 147.308L13.4594 147.41C6.53724 129.675 2.22521 111.319 0.523263 92.3437C-1.00628 75.3256 0.614535 56.971 8.09351 41.1787C15.2019 26.164 28.6967 15.6516 43.5523 8.98822C55.1607 3.77764 68.3043 0.993866 80.9444 0.700546C106.98 0.0973026 130.877 10.8699 150.324 27.6362C150.949 28.1767 151.572 28.7467 152.194 29.3463Z" fill="#E6E4DE"/>
<path d="M179.347 62.6687C167.256 65.3717 155.96 58.9974 151.348 47.6569C149.432 42.3671 149.352 36.9509 151.108 31.4084L152.264 28.6584C156.336 20.6849 163.975 15.6054 172.792 15.1627C191.113 14.2414 203.845 33.9261 195.263 50.3074C191.96 56.607 186.302 60.9451 179.347 62.6687ZM171.503 45.6898C172.898 46.5641 174.547 45.6373 174.748 44.0797C174.87 43.1196 175.067 42.3477 175.977 41.8663C178.791 40.3806 181.184 39.487 182.166 36.1089C185.129 25.9305 168.958 21.7916 166.872 32.3712C166.247 35.5446 170.291 36.2694 170.856 33.2261C171.431 30.1275 174.674 29.3611 176.992 31.0903C179.28 32.7973 178.735 35.8461 176.265 37.0717C173.332 38.527 171.036 39.8412 170.687 43.2746C170.579 44.3425 170.571 45.1061 171.503 45.6898ZM174.134 50.5425C174.134 49.9563 173.901 49.394 173.487 48.9794C173.072 48.5649 172.51 48.332 171.924 48.332C171.337 48.332 170.775 48.5649 170.361 48.9794C169.946 49.394 169.713 49.9563 169.713 50.5425C169.713 51.1288 169.946 51.6911 170.361 52.1056C170.775 52.5202 171.337 52.7531 171.924 52.7531C172.51 52.7531 173.072 52.5202 173.487 52.1056C173.901 51.6911 174.134 51.1288 174.134 50.5425Z" fill="#4F756C"/>
<path d="M171.503 45.6898C170.571 45.106 170.579 44.3424 170.687 43.2745C171.036 39.8411 173.332 38.527 176.265 37.0717C178.735 35.8461 179.28 32.7972 176.992 31.0902C174.674 29.3611 171.432 30.1274 170.856 33.2261C170.292 36.2694 166.247 35.5445 166.872 32.3712C168.958 21.7915 185.129 25.9304 182.166 36.1089C181.184 39.487 178.791 40.3806 175.977 41.8663C175.067 42.3477 174.87 43.1196 174.749 44.0796C174.547 45.6372 172.898 46.5641 171.503 45.6898Z" fill="white"/>
<path d="M151.107 31.4084C149.351 36.9509 149.432 42.3671 151.348 47.6569L13.9732 47.6596C13.9732 46.0827 13.9732 44.4531 13.9732 42.771C13.9713 40.4931 14.1041 38.8756 14.3716 37.9183C15.5723 33.6106 19.2906 31.4029 23.6813 31.4029C66.1271 31.401 108.602 31.4029 151.107 31.4084ZM29.4581 39.7387C29.4581 39.3729 29.386 39.0106 29.246 38.6726C29.106 38.3346 28.9008 38.0274 28.6421 37.7687C28.3834 37.51 28.0762 37.3048 27.7382 37.1648C27.4002 37.0248 27.0379 36.9527 26.6721 36.9527C25.9332 36.9527 25.2245 37.2463 24.7021 37.7687C24.1796 38.2912 23.886 38.9999 23.886 39.7387C23.886 40.4776 24.1796 41.1863 24.7021 41.7088C25.2245 42.2312 25.9332 42.5248 26.6721 42.5248C27.0379 42.5248 27.4002 42.4527 27.7382 42.3127C28.0762 42.1727 28.3834 41.9675 28.6421 41.7088C28.9008 41.4501 29.106 41.1429 29.246 40.8049C29.386 40.4669 29.4581 40.1046 29.4581 39.7387ZM38.5797 39.7415C38.5797 39.0026 38.2862 38.294 37.7637 37.7715C37.2412 37.249 36.5326 36.9555 35.7937 36.9555C35.0548 36.9555 34.3461 37.249 33.8237 37.7715C33.3012 38.294 33.0077 39.0026 33.0077 39.7415C33.0077 40.4804 33.3012 41.189 33.8237 41.7115C34.3461 42.234 35.0548 42.5275 35.7937 42.5275C36.5326 42.5275 37.2412 42.234 37.7637 41.7115C38.2862 41.189 38.5797 40.4804 38.5797 39.7415ZM47.7151 39.7415C47.7151 39.0019 47.4213 38.2925 46.8983 37.7696C46.3753 37.2466 45.666 36.9527 44.9264 36.9527C44.1867 36.9527 43.4774 37.2466 42.9544 37.7696C42.4314 38.2925 42.1376 39.0019 42.1376 39.7415C42.1376 40.4811 42.4314 41.1905 42.9544 41.7135C43.4774 42.2365 44.1867 42.5303 44.9264 42.5303C45.666 42.5303 46.3753 42.2365 46.8983 41.7135C47.4213 41.1905 47.7151 40.4811 47.7151 39.7415Z" fill="#CAC8C6"/>
<path d="M26.6722 42.5248C28.2109 42.5248 29.4583 41.2774 29.4583 39.7388C29.4583 38.2001 28.2109 36.9528 26.6722 36.9528C25.1336 36.9528 23.8862 38.2001 23.8862 39.7388C23.8862 41.2774 25.1336 42.5248 26.6722 42.5248Z" fill="white"/>
<path d="M35.7938 42.5276C37.3325 42.5276 38.5798 41.2802 38.5798 39.7416C38.5798 38.2029 37.3325 36.9556 35.7938 36.9556C34.2552 36.9556 33.0078 38.2029 33.0078 39.7416C33.0078 41.2802 34.2552 42.5276 35.7938 42.5276Z" fill="white"/>
<path d="M44.9265 42.5303C46.4667 42.5303 47.7152 41.2817 47.7152 39.7415C47.7152 38.2013 46.4667 36.9528 44.9265 36.9528C43.3863 36.9528 42.1377 38.2013 42.1377 39.7415C42.1377 41.2817 43.3863 42.5303 44.9265 42.5303Z" fill="white"/>
<path d="M171.923 52.753C173.144 52.753 174.134 51.7633 174.134 50.5425C174.134 49.3216 173.144 48.3319 171.923 48.3319C170.703 48.3319 169.713 49.3216 169.713 50.5425C169.713 51.7633 170.703 52.753 171.923 52.753Z" fill="white"/>
<path d="M179.286 146.694L179.369 62.9537C179.544 62.8411 179.699 62.9039 179.833 63.1418C186.33 74.6483 190.889 87.3167 192.286 100.292C193.835 114.651 190.909 128.031 183.508 140.431C182.063 142.849 180.656 144.937 179.286 146.694Z" fill="#E6E4DE"/>
<path d="M88.1087 77.4758H54.7928C52.7361 77.4758 51.0688 79.143 51.0688 81.1997V81.3491C51.0688 83.4057 52.7361 85.073 54.7928 85.073H88.1087C90.1653 85.073 91.8326 83.4057 91.8326 81.3491V81.1997C91.8326 79.143 90.1653 77.4758 88.1087 77.4758Z" fill="#80ABB8"/>
<path d="M74.376 93.3318L54.7716 93.2976C52.7363 93.2941 51.0835 94.9411 51.08 96.9764L51.0796 97.1922C51.0761 99.2274 52.7231 100.88 54.7583 100.884L74.3627 100.918C76.398 100.922 78.0508 99.2745 78.0543 97.2392L78.0547 97.0234C78.0583 94.9882 76.4112 93.3354 74.376 93.3318Z" fill="#CCDDE3"/>
<path d="M93.3398 93.3314H86.8216C84.8474 93.3314 83.2471 94.9318 83.2471 96.9059V97.3043C83.2471 99.2785 84.8474 100.879 86.8216 100.879H93.3398C95.3139 100.879 96.9143 99.2785 96.9143 97.3043V96.9059C96.9143 94.9318 95.3139 93.3314 93.3398 93.3314Z" fill="#80ABB8"/>
<path d="M52.4158 115.799C50.3602 113.982 50.7115 110.598 53.2098 109.458C54.701 108.78 57.6005 109.068 59.4154 109.074C64.5835 109.093 64.8712 116.469 59.6007 116.701C57.2602 116.806 53.9596 117.166 52.4158 115.799Z" fill="#CCDDE3"/>
<path d="M101.009 109.087H72.3243C70.257 109.087 68.5811 110.763 68.5811 112.831V112.997C68.5811 115.064 70.257 116.74 72.3243 116.74H101.009C103.076 116.74 104.752 115.064 104.752 112.997V112.831C104.752 110.763 103.076 109.087 101.009 109.087Z" fill="#80ABB8"/>
<path d="M138.237 109.087H113.664C111.603 109.087 109.932 110.758 109.932 112.82V113.008C109.932 115.069 111.603 116.74 113.664 116.74H138.237C140.298 116.74 141.969 115.069 141.969 113.008V112.82C141.969 110.758 140.298 109.087 138.237 109.087Z" fill="#CAC8C6"/>
<path d="M70.2957 124.918L54.7361 124.946C52.7115 124.949 51.0732 126.593 51.0767 128.618L51.0771 128.867C51.0807 130.891 52.7248 132.53 54.7493 132.526L70.3089 132.499C72.3335 132.495 73.9718 130.851 73.9683 128.827L73.9679 128.578C73.9643 126.553 72.3202 124.915 70.2957 124.918Z" fill="#CAC8C6"/>
<path d="M86.5617 124.954H82.694C80.7504 124.954 79.1748 126.53 79.1748 128.473V128.966C79.1748 130.909 80.7504 132.485 82.694 132.485H86.5617C88.5053 132.485 90.0809 130.909 90.0809 128.966V128.473C90.0809 126.53 88.5053 124.954 86.5617 124.954Z" fill="#CCDDE3"/>
<path d="M119.41 124.924H98.97C96.9317 124.924 95.2793 126.576 95.2793 128.614V128.825C95.2793 130.863 96.9317 132.515 98.97 132.515H119.41C121.448 132.515 123.101 130.863 123.101 128.825V128.614C123.101 126.576 121.448 124.924 119.41 124.924Z" fill="#80ABB8"/>
<path d="M22.1807 165.449L161.413 165.449C160.526 166.39 159.426 167.358 158.113 168.352C144.058 179.001 128.641 186.916 111.86 192.095C90.4406 198.707 63.4078 200.843 43.8006 187.635C38.7321 184.221 34.1948 180.125 30.1887 175.346L22.1807 165.449Z" fill="#E6E4DE"/>
</svg>
