<svg width="40" height="41" viewBox="0 0 40 41" fill="none" xmlns="http://www.w3.org/2000/svg">
<g clip-path="url(#clip0_2510_17790)">
<path d="M12.8036 18.6096C11.8184 18.326 10.8333 18.1821 9.87495 18.1821C8.39508 18.1821 7.16025 18.5203 6.20277 18.9344C7.12585 15.5551 9.34334 9.72415 13.7607 9.06751C14.1698 9.00667 14.505 8.71086 14.6166 8.31268L15.5821 4.85952C15.6635 4.56749 15.6152 4.2549 15.4487 4.00147C15.2821 3.74805 15.0144 3.57896 14.7144 3.53784C14.3884 3.49336 14.0561 3.4707 13.7267 3.4707C8.42445 3.4707 3.17339 9.00499 0.957574 16.9292C-0.34313 21.5782 -0.72453 28.5676 2.4794 32.9669C4.27227 35.4286 6.88794 36.7431 10.2538 36.8745C10.2677 36.8749 10.2811 36.8753 10.2949 36.8753C14.448 36.8753 18.1306 34.0784 19.2509 30.0743C19.9202 27.6806 19.6176 25.1702 18.3983 23.0039C17.192 20.862 15.2053 19.3007 12.8036 18.6096Z" fill="#91A9A3"/>
<path d="M38.8003 23.0043C37.594 20.8619 35.6072 19.3007 33.2055 18.6096C32.2204 18.326 31.2352 18.1821 30.2773 18.1821C28.7974 18.1821 27.5622 18.5203 26.6047 18.9344C27.5278 15.5551 29.7453 9.72415 34.163 9.06751C34.5721 9.00667 34.907 8.71086 35.019 8.31268L35.9844 4.85952C36.0658 4.56749 36.0176 4.2549 35.851 4.00147C35.6849 3.74805 35.4172 3.57896 35.1167 3.53784C34.7911 3.49336 34.4588 3.4707 34.129 3.4707C28.8268 3.4707 23.5757 9.00499 21.3595 16.9292C20.0592 21.5782 19.6778 28.5676 22.8822 32.9677C24.6746 35.429 27.2907 36.744 30.6562 36.8749C30.67 36.8753 30.6834 36.8757 30.6977 36.8757C34.8503 36.8757 38.5334 34.0788 39.6537 30.0747C40.3221 27.681 40.0191 25.1702 38.8003 23.0043Z" fill="#91A9A3"/>
</g>
<defs>
<clipPath id="clip0_2510_17790">
<rect width="40" height="39.9996" fill="white" transform="translate(0 0.173828)"/>
</clipPath>
</defs>
</svg>
