<svg width="64" height="64" viewBox="0 0 64 64" fill="none" xmlns="http://www.w3.org/2000/svg">
<rect width="64" height="64" rx="8.77714" fill="#F3E8ED"/>
<path d="M17.6016 31.9309V31.9044C17.6076 31.1609 17.8835 30.6215 18.0089 30.3832C18.5922 29.2743 19.572 28.6628 20.576 28.231C21.0708 28.0185 21.5324 27.8187 21.9645 27.6303C21.6779 27.1338 21.1191 26.0068 21.1754 24.512C21.2585 22.3046 22.6229 20.8812 23.101 20.4347C25.3805 18.3054 28.4223 18.8397 28.7643 18.9057C28.9201 19.5148 29.3962 21.6854 28.2403 23.8895C26.3899 27.4181 22.1439 27.6249 21.9652 27.6306C22.4778 28.2542 23.4308 28.9038 25.711 29.9303C27 30.5106 29.8239 31.246 32.0015 31.9312C34.1792 32.6164 37.0031 33.3518 38.292 33.9321C40.5722 34.9585 41.5253 35.6082 42.0379 36.2317C41.8592 36.2374 37.6132 36.4443 35.7628 39.9728C34.6069 42.1769 35.0829 44.3475 35.2388 44.9566C35.5807 45.0227 38.6226 45.557 40.9021 43.4277C41.3801 42.9812 42.7445 41.5578 42.8276 39.3503C42.884 37.8556 42.3251 36.7285 42.0385 36.2321C42.4706 36.0437 42.9322 35.8439 43.427 35.6313C44.431 35.1996 45.4109 34.5881 45.9942 33.4792C46.1196 33.2409 46.3955 32.7015 46.4015 31.958V31.9315M17.6018 31.9315V31.958C17.6078 32.7015 17.8837 33.2409 18.0091 33.4792C18.5924 34.5881 19.5723 35.1996 20.5763 35.6313C21.0711 35.8439 21.5327 36.0437 21.9648 36.2321C21.6782 36.7282 21.1193 37.8552 21.1757 39.3503C21.2585 41.5581 22.6232 42.9812 23.1012 43.4277C25.3804 45.557 28.4226 45.0227 28.7645 44.9566C28.9204 44.3475 29.3964 42.1769 28.2406 39.9728C26.3901 36.4443 22.1438 36.2374 21.9655 36.2317C22.478 35.6082 23.4311 34.9585 25.7113 33.9321C27.0002 33.3518 29.8242 32.6163 32.0018 31.9311M46.4009 31.9312V31.9048C46.3949 31.1612 46.119 30.6218 45.9936 30.3835C45.4103 29.2746 44.4305 28.6631 43.4265 28.2314C42.9317 28.0188 42.4701 27.819 42.038 27.6306C42.3246 27.1345 42.8834 26.0075 42.8271 24.5124C42.7443 22.3046 41.3796 20.8816 40.9015 20.435C38.6223 18.3057 35.5802 18.84 35.2382 18.9061C35.0823 19.5152 34.6063 21.6858 35.7622 23.8899C37.6126 27.4184 41.8589 27.6253 42.0373 27.631C41.5247 28.2545 40.5717 28.9042 38.2915 29.9306C37.0025 30.5109 34.1786 31.2464 32.0009 31.9316" stroke="url(#paint0_linear_1070_20722)" stroke-width="1.80045" stroke-miterlimit="10" stroke-linejoin="round"/>
<defs>
<linearGradient id="paint0_linear_1070_20722" x1="17.6016" y1="18.7985" x2="49.001" y2="41.7137" gradientUnits="userSpaceOnUse">
<stop stop-color="#CFA1B7"/>
<stop offset="1" stop-color="#88154C"/>
</linearGradient>
</defs>
</svg>
