<svg width="40" height="41" viewBox="0 0 40 41" fill="none" xmlns="http://www.w3.org/2000/svg">
<g clip-path="url(#clip0_2510_17798)">
<path d="M27.1964 21.7366C28.1816 22.0202 29.1667 22.1641 30.1251 22.1641C31.6049 22.1641 32.8397 21.8259 33.7972 21.4118C32.8742 24.7911 30.6567 30.622 26.2393 31.2787C25.8302 31.3395 25.495 31.6353 25.3834 32.0335L24.4179 35.4867C24.3365 35.7787 24.3848 36.0913 24.5513 36.3447C24.7179 36.5981 24.9856 36.7672 25.2856 36.8084C25.6116 36.8528 25.9439 36.8755 26.2733 36.8755C31.5755 36.8755 36.8266 31.3412 39.0424 23.417C40.3431 18.768 40.7245 11.7786 37.5206 7.3793C35.7277 4.91762 33.1121 3.60306 29.7462 3.47174C29.7323 3.47132 29.7189 3.4709 29.7051 3.4709C25.552 3.4709 21.8694 6.26783 20.7491 10.2719C20.0798 12.6656 20.3824 15.176 21.6017 17.3423C22.808 19.4842 24.7947 21.0455 27.1964 21.7366Z" fill="#91A9A3"/>
<path d="M1.19976 17.3419C2.40606 19.4842 4.39278 21.0455 6.79447 21.7366C7.77965 22.0202 8.76483 22.1641 9.72273 22.1641C11.2026 22.1641 12.4378 21.8259 13.3953 21.4118C12.4722 24.7911 10.2548 30.622 5.83698 31.2787C5.42789 31.3395 5.09306 31.6353 4.98103 32.0335L4.01558 35.4867C3.93418 35.7787 3.98243 36.0913 4.149 36.3447C4.31516 36.5981 4.58285 36.7672 4.88327 36.8084C5.20887 36.8528 5.54118 36.8755 5.87097 36.8755C11.1732 36.8755 16.4243 31.3412 18.6405 23.417C19.9408 18.768 20.3222 11.7786 17.1179 7.37847C15.3254 4.9172 12.7093 3.60223 9.34385 3.47132C9.33 3.4709 9.31657 3.47048 9.30231 3.47048C5.14971 3.47048 1.46662 6.26741 0.346337 10.2715C-0.322058 12.6652 -0.0191212 15.176 1.19976 17.3419Z" fill="#91A9A3"/>
</g>
<defs>
<clipPath id="clip0_2510_17798">
<rect width="40" height="39.9996" fill="white" transform="translate(40 40.1729) rotate(-180)"/>
</clipPath>
</defs>
</svg>
